<svg width="20" height="21" viewBox="0 0 20 21" fill="none" xmlns="http://www.w3.org/2000/svg">
<path d="M16.9137 8.66305L10.6637 14.9131C10.5766 15.0005 10.4731 15.0698 10.3592 15.1171C10.2452 15.1644 10.1231 15.1888 9.99967 15.1888C9.87628 15.1888 9.75411 15.1644 9.64016 15.1171C9.5262 15.0698 9.42271 15.0005 9.33561 14.9131L3.08561 8.66305C2.90949 8.48693 2.81055 8.24806 2.81055 7.99899C2.81055 7.74992 2.90949 7.51105 3.08561 7.33493C3.26173 7.15881 3.5006 7.05986 3.74967 7.05986C3.99874 7.05986 4.23762 7.15881 4.41374 7.33493L10.0005 12.9216L15.5872 7.33415C15.7633 7.15803 16.0022 7.05908 16.2512 7.05908C16.5003 7.05908 16.7392 7.15803 16.9153 7.33415C17.0914 7.51027 17.1904 7.74914 17.1904 7.99821C17.1904 8.24728 17.0914 8.48615 16.9153 8.66227L16.9137 8.66305Z" fill="black"/>
</svg>
