<svg width="301" height="228" viewBox="0 0 301 228" fill="none" xmlns="http://www.w3.org/2000/svg">
<mask id="mask0_140_8198" style="mask-type:luminance" maskUnits="userSpaceOnUse" x="0" y="0" width="301" height="228">
<path d="M0.5 227.249L300.5 227.249V0.000152588L0.5 0.000152588V227.249Z" fill="white"/>
</mask>
<g mask="url(#mask0_140_8198)">
<g opacity="0.19">
<path d="M140.744 226.744C141.182 227.015 141.63 227.281 142.057 227.569C142.268 227.713 142.478 227.348 142.257 227.231C141.797 226.993 141.348 226.727 140.899 226.472C140.722 226.372 140.572 226.638 140.744 226.744Z" fill="#001200"/>
</g>
<path d="M143.844 89.4693C148.311 90.4003 153.087 89.8905 157.276 88.0674C157.542 85.1582 157.858 82.0107 157.858 82.0107H143.141C143.141 82.0107 143.567 86.2775 143.844 89.4693Z" fill="#E4688E"/>
<path d="M196.14 112.881C196.14 112.881 208.779 160.054 215.169 168.533C215.169 168.533 239.029 165.197 247.12 170.333C255.21 175.47 250.627 200.295 241.445 206.341C229.016 214.525 203.731 201.564 198.124 198.389C192.521 195.219 184.42 153.538 184.42 153.538L187.689 113.025L196.145 112.881H196.14Z" fill="url(#paint0_linear_140_8198)"/>
<path style="mix-blend-mode:multiply" opacity="0.3" d="M215.163 168.533C209.062 168.627 198.384 178.701 197.763 167.225C197.142 155.749 190.825 121.986 190.825 121.986L186.298 130.165L184.414 153.538C184.414 153.538 192.515 195.22 198.118 198.389C203.72 201.559 229.01 214.52 241.439 206.341C248.915 201.42 253.342 184.054 250.367 174.999L238.536 168.438C238.536 168.438 230.678 168.222 222.981 177.842C215.285 187.462 221.031 202.002 221.031 202.002C221.031 202.002 209.078 198.794 205.449 190.005C201.814 181.211 215.168 168.527 215.168 168.527L215.163 168.533Z" fill="url(#paint1_linear_140_8198)"/>
<path style="mix-blend-mode:multiply" opacity="0.5" d="M243.709 172.034C244.341 172.101 244.961 172.212 245.576 172.345L250.364 174.999C253.34 184.059 248.912 201.42 241.437 206.34C229.008 214.525 203.723 201.564 198.115 198.389C195.982 197.181 193.494 190.409 191.222 182.474C193.555 187.107 197.04 191.578 199.938 195.629C200.215 192.437 199.789 189.063 200.066 185.876C200.132 190.57 200.387 195.734 203.612 199.142C205.474 201.109 208.078 202.179 210.65 203.032C215.709 204.706 220.973 205.753 226.287 206.135C220.862 199.364 219.981 189.345 224.248 181.787C228.027 175.093 236.073 171.192 243.709 172.034ZM186.717 164.454C187.276 166.958 187.919 169.729 188.617 172.577C188.656 171.242 188.878 169.906 189.332 168.582C191.66 161.777 192.984 154.624 193.239 147.437C190.64 152.806 188.113 158.58 186.722 164.459L186.717 164.454Z" fill="url(#paint2_linear_140_8198)"/>
<path d="M213.302 165.363C207.517 153.771 198.922 123.05 196.684 114.893C195.442 130.536 199.283 146.55 207.534 159.905C208.952 162.205 210.803 164.61 213.302 165.363Z" fill="url(#paint3_linear_140_8198)"/>
<path d="M138.979 91.8904C150.4 88.1556 161.693 91.8904 161.693 91.8904L166.519 98.0856H134.668L138.985 91.8904H138.979Z" fill="url(#paint4_linear_140_8198)"/>
<path style="mix-blend-mode:multiply" opacity="0.5" d="M138.979 91.8904C150.4 88.1556 161.693 91.8904 161.693 91.8904L166.519 98.0856H134.668L138.985 91.8904H138.979Z" fill="url(#paint5_linear_140_8198)"/>
<path d="M120.089 176.634C120.089 176.634 108.873 158.048 109.544 150.025C110.214 141.995 112.708 125.2 112.708 125.2L108.652 109.202C108.652 109.202 144.088 94.0575 144.083 92.7608C144.083 91.4642 143.135 82.0107 143.135 82.0107H157.853C157.853 82.0107 156.911 91.4586 156.905 92.7608C156.905 94.0575 192.336 109.202 192.336 109.202L188.28 125.2C188.28 125.2 190.779 142.001 191.444 150.025C192.115 158.054 180.899 176.634 180.899 176.634L196.01 252.594H104.967L120.078 176.634H120.089Z" fill="url(#paint6_linear_140_8198)"/>
<path d="M165.108 97.116C165.108 97.116 153.565 111.878 150.219 112.033C147.553 112.155 135.822 96.7725 135.822 96.7725C135.822 96.7725 140.172 114.122 150.13 114.095C159.55 114.067 165.108 97.116 165.108 97.116Z" fill="url(#paint7_linear_140_8198)"/>
<path d="M165.108 97.1162C165.108 97.1162 152.684 113.513 150.13 113.374C147.415 113.225 135.822 96.7671 135.822 96.7671C135.822 96.7671 140.172 115.048 150.13 115.02C159.55 114.992 165.108 97.1162 165.108 97.1162Z" fill="#25ACE0"/>
<path d="M108.787 253.031H192.216L180.912 176.633C180.912 176.633 185.223 169.485 188.338 162.143L184.957 119.525L189.523 111.711L165.269 97.2098C165.214 97.1821 165.153 97.1544 165.097 97.1322C164.876 97.4758 153.649 114.604 150.13 114.521C146.229 114.427 137.363 99.4263 136.006 97.0879C134.288 97.8914 132.393 98.7614 130.426 99.648C125.865 102.103 119.592 105.544 116.5 107.517C114.345 108.891 110.743 111.717 110.743 111.717L115.309 119.53L111.303 158.702C114.317 167.069 120.085 176.639 120.085 176.639L108.781 253.036L108.787 253.031Z" fill="url(#paint8_linear_140_8198)"/>
<path d="M108.787 253.031H192.216L180.912 176.633C180.912 176.633 185.223 169.485 188.338 162.143L184.957 119.525L189.523 111.711L165.269 97.2098C165.214 97.1821 165.153 97.1544 165.097 97.1322C164.876 97.4758 153.649 114.604 150.13 114.521C146.229 114.427 137.363 99.4263 136.006 97.0879C134.288 97.8914 132.393 98.7614 130.426 99.648C125.865 102.103 119.592 105.544 116.5 107.517C114.345 108.891 110.743 111.717 110.743 111.717L115.309 119.53L111.303 158.702C114.317 167.069 120.085 176.639 120.085 176.639L108.781 253.036L108.787 253.031Z" fill="url(#paint9_linear_140_8198)"/>
<path style="mix-blend-mode:multiply" opacity="0.5" d="M192.217 253.031L180.913 176.633C180.913 176.633 185.224 169.485 188.338 162.143L186.537 139.429C182.049 126.069 176.601 112.886 168.306 101.505C168.212 116.521 164.145 131.267 158.005 144.97C151.583 141.147 146.302 135.29 143.005 128.579C143.575 136.609 144.152 144.638 144.722 152.662C137.979 135.129 134.715 116.272 135.13 97.4927C133.651 98.1798 132.066 98.9057 130.431 99.6482C125.871 102.103 119.598 105.544 116.506 107.517C114.351 108.891 110.749 111.717 110.749 111.717L115.315 119.53L111.308 158.702C114.323 167.069 120.091 176.639 120.091 176.639L108.787 253.037H192.217V253.031Z" fill="url(#paint10_linear_140_8198)"/>
<path d="M104.862 112.881C104.862 112.881 92.2225 160.054 85.8334 168.533C85.8334 168.533 61.9726 165.197 53.8823 170.333C45.792 175.47 50.3746 200.295 59.5566 206.341C71.9857 214.525 97.2706 201.564 102.878 198.389C108.481 195.219 116.582 153.538 116.582 153.538L113.313 113.025L104.857 112.881H104.862Z" fill="url(#paint11_linear_140_8198)"/>
<path style="mix-blend-mode:multiply" opacity="0.3" d="M85.8351 168.533C91.9361 168.627 102.614 178.701 103.235 167.225C103.855 155.749 110.172 121.986 110.172 121.986L114.7 130.165L116.584 153.538C116.584 153.538 108.482 195.22 102.88 198.389C97.2779 201.559 71.9874 214.52 59.5583 206.341C52.0831 201.42 47.6556 184.054 50.6313 174.999L62.4619 168.438C62.4619 168.438 70.3195 168.222 78.0163 177.842C85.7132 187.462 79.9669 202.002 79.9669 202.002C79.9669 202.002 91.9139 198.794 95.549 190.005C99.1841 181.211 85.8296 168.527 85.8296 168.527L85.8351 168.533Z" fill="url(#paint12_linear_140_8198)"/>
<path style="mix-blend-mode:multiply" opacity="0.5" d="M76.7529 181.787C81.0197 189.346 80.1387 199.359 74.7082 206.136C80.0223 205.753 85.2865 204.706 90.3457 203.033C92.9169 202.179 95.5213 201.11 97.3832 199.143C100.608 195.735 100.863 190.57 100.93 185.877C101.207 189.069 100.78 192.443 101.057 195.629C103.955 191.579 107.441 187.113 109.773 182.474C107.502 190.41 105.014 197.187 102.88 198.389C97.2779 201.559 71.9874 214.52 59.5583 206.341C52.0831 201.42 47.6556 184.054 50.6313 174.999L55.419 172.345C56.034 172.218 56.6602 172.107 57.2864 172.035C64.9278 171.192 72.9738 175.093 76.7474 181.787H76.7529ZM107.762 147.431C108.017 154.618 109.341 161.772 111.669 168.577C112.123 169.907 112.345 171.237 112.383 172.572C113.082 169.724 113.719 166.959 114.284 164.449C112.893 158.569 110.361 152.795 107.768 147.426L107.762 147.431Z" fill="url(#paint13_linear_140_8198)"/>
<path d="M87.6992 165.363C93.4843 153.771 102.079 123.05 104.318 114.893C105.559 130.536 101.719 146.55 93.4677 159.905C92.0491 162.205 90.1983 164.61 87.6992 165.363Z" fill="url(#paint14_linear_140_8198)"/>
<path d="M240.266 167.13C235.367 166.814 230.762 170.056 228.208 174.245C225.653 178.434 224.817 183.433 224.384 188.32C224.08 191.794 223.98 195.446 225.476 198.594C227.399 202.65 231.81 205.193 236.287 205.542C240.759 205.886 245.225 204.257 248.916 201.697C249.254 193.839 249.01 184.707 247.176 177.06C246.644 174.833 245.995 172.588 244.721 170.688C243.446 168.787 242.554 167.28 240.266 167.136V167.13Z" fill="url(#paint15_radial_140_8198)"/>
<path style="mix-blend-mode:multiply" opacity="0.5" d="M224.384 188.326C224.49 187.112 224.623 185.893 224.8 184.679C225.077 187.45 225.653 190.204 226.263 192.93C225.781 190.265 226.518 187.511 227.704 185.078C228.889 182.646 230.507 180.457 231.937 178.157C233.007 176.434 233.976 174.639 234.824 172.793C235.572 171.175 236.232 169.518 236.802 167.828C236.847 167.701 236.885 167.579 236.924 167.463C238.005 167.186 239.124 167.058 240.266 167.136C242.549 167.285 243.441 168.787 244.721 170.688C245.995 172.588 246.638 174.838 247.176 177.06C249.01 184.707 249.254 193.839 248.916 201.697C245.225 204.251 240.759 205.886 236.287 205.542C231.815 205.199 227.399 202.65 225.476 198.594C223.98 195.446 224.08 191.794 224.384 188.32V188.326Z" fill="url(#paint16_linear_140_8198)"/>
<path style="mix-blend-mode:multiply" opacity="0.5" d="M238.892 204.445C233.838 201.242 230.286 195.773 229.416 189.855L235.257 191.545C239.851 193.357 244.444 195.175 249.038 196.987C249.021 198.594 248.983 200.173 248.916 201.702C245.226 204.257 240.759 205.891 236.288 205.548C233.655 205.343 231.045 204.373 228.945 202.783C232.126 203.924 235.512 204.512 238.892 204.445Z" fill="url(#paint17_linear_140_8198)"/>
<path d="M256.167 169.529L258.356 164.055C261.836 161.921 264.906 159.322 267.4 156.092C269.727 153.072 270.963 149.348 271.772 145.619C271.999 144.571 270.99 144.134 269.926 143.978C268.862 143.823 267.821 144.311 266.89 144.843C264.269 146.328 261.903 148.262 259.913 150.523C257.985 152.717 257.187 156.014 255.031 157.981C250.299 162.281 243.046 162.558 238.712 167.496C236.451 170.072 235.698 173.597 234.894 176.927C234.096 180.263 233.044 183.776 230.422 185.987C228.067 187.982 227.79 190.647 229.115 193.429C230.439 196.216 233.127 198.073 235.792 199.63C243.522 204.151 252.078 207.26 260.905 208.756C262.501 209.028 262.374 208.54 263.631 207.526C264.889 206.512 265.682 205.038 266.413 203.603C267.15 202.162 267.893 200.677 269.101 199.602C269.101 199.602 274.742 197.674 277.457 196.715C278.748 196.261 280.111 195.751 280.948 194.67C282.078 193.218 281.934 191.179 281.735 189.351C284.616 189.306 287.01 186.037 288.246 183.432C289.482 180.828 290.363 177.88 292.596 176.051C293.349 175.436 294.219 174.976 294.99 174.389C295.76 173.802 296.464 173.026 296.658 172.073C296.851 171.12 296.392 169.989 295.466 169.696C296.164 168.931 296.84 167.667 297.156 166.681C297.472 165.695 297.262 164.454 296.397 163.883C295.588 163.345 294.519 163.545 293.571 163.761C291.028 164.343 288.456 164.93 286.124 166.099C283.381 167.468 281.829 170.377 279.319 172.123C276.421 174.14 272.392 173.031 269.139 172.444C266.912 172.04 264.645 171.624 262.396 171.879C260.368 172.112 258.085 170.228 256.162 169.529H256.167Z" fill="url(#paint18_radial_140_8198)"/>
<path style="mix-blend-mode:multiply" opacity="0.5" d="M237.418 181.704C240.776 182.236 244.073 185.333 245.719 188.043C247.614 191.157 249.182 195.352 251.266 198.289C251.509 198.632 253.704 202.284 254.241 201.907C256.33 200.433 260.946 201.01 260.946 201.01C260.946 201.01 262.758 197.84 265.385 196.045C268.017 194.249 272.444 194.349 272.533 195.258C272.622 196.167 271.253 198.006 269.098 199.602C269.098 199.602 274.739 197.674 277.454 196.715C278.745 196.261 280.108 195.751 280.945 194.67C282.075 193.219 281.931 191.179 281.732 189.351C284.613 189.306 287.007 186.037 288.243 183.433C289.478 180.828 290.359 177.88 292.593 176.052C293.346 175.437 294.216 174.977 294.986 174.389C295.757 173.802 296.46 173.026 296.654 172.073C296.665 172.023 296.665 171.973 296.671 171.923C294.211 175.309 285.843 174.905 286.314 173.453C286.813 171.901 291.662 169.435 295.463 169.69C296.161 168.926 296.837 167.662 297.153 166.676C297.436 165.789 297.292 164.709 296.638 164.077C296.549 164.426 296.416 164.77 296.228 165.069C295.546 166.161 294.371 166.848 293.169 167.296C291.966 167.745 290.692 167.995 289.49 168.438C286.946 169.374 284.824 171.126 282.807 172.893C281.183 174.312 278.994 177.16 276.645 177.071C275.692 177.038 274.761 176.584 274.146 175.852C273.519 175.11 273.254 174.129 273.287 173.159C271.863 172.993 270.439 172.677 269.142 172.439C266.914 172.034 264.648 171.619 262.398 171.874C260.37 172.106 258.087 170.222 256.164 169.524C256.896 167.701 257.622 165.872 258.353 164.049C261.833 161.916 264.903 159.317 267.396 156.086C268.405 154.779 269.197 153.338 269.851 151.825C267.502 155.15 264.144 157.771 260.281 159.062C259.195 159.428 257.932 159.672 256.957 159.079C256.292 158.674 255.931 157.982 255.754 157.211C255.527 157.483 255.289 157.743 255.028 157.976C252.945 159.866 250.379 160.979 247.786 162.054C248.523 164.781 248.911 167.601 248.916 170.427C248.916 172.367 248.733 174.367 247.797 176.063C246.86 177.758 245.248 179 243.491 179.82C241.74 180.645 239.302 181.249 237.418 181.693V181.704ZM274.888 188.254C274.606 182.795 278.207 177.365 283.339 175.492C284.048 175.237 285.306 175.287 285.777 175.985C286.409 176.905 285.561 177.548 284.973 178.163C284.624 178.529 284.303 178.917 283.993 179.316C282.829 180.817 281.865 182.518 280.601 183.937C278.994 185.743 277.11 187.289 274.883 188.254H274.888Z" fill="url(#paint19_linear_140_8198)"/>
<path style="mix-blend-mode:multiply" opacity="0.5" d="M268.23 184.12C269.083 182.712 269.92 181.149 269.709 179.52C269.476 177.703 267.975 176.29 266.362 175.414C264.75 174.539 262.954 174.04 261.369 173.115C260.45 172.577 259.596 171.829 259.025 170.942C260.161 171.519 261.314 172.001 262.395 171.879C264.644 171.624 266.911 172.04 269.138 172.444C270.435 172.677 271.859 172.993 273.283 173.164C273.25 174.14 273.516 175.121 274.142 175.858C274.757 176.589 275.688 177.038 276.641 177.077C277.04 177.093 277.439 177.016 277.827 176.883C278.104 177.42 278.52 177.891 279.03 178.201C276.325 180.778 274.685 184.519 274.879 188.264C274.979 188.22 273.278 190.542 271.859 191.157C270.634 191.689 269.238 191.783 268.063 192.42C266.817 193.096 266.03 194.399 265.802 195.79C265.658 195.873 265.514 195.956 265.381 196.05C262.749 197.845 260.943 201.015 260.943 201.015C260.943 201.015 257.684 200.616 255.401 201.359C255.135 201.314 254.869 201.27 254.604 201.209C259.851 196.133 264.445 190.376 268.224 184.131L268.23 184.12Z" fill="url(#paint20_linear_140_8198)"/>
<path d="M260.626 200.971C260.626 200.971 260.632 200.971 260.637 200.971C260.698 200.976 260.754 200.982 260.798 200.987C260.803 200.987 260.809 200.987 260.815 200.987C260.898 200.998 260.948 201.004 260.948 201.004C260.948 201.004 262.76 197.834 265.386 196.039C265.519 195.945 265.663 195.861 265.807 195.778C268.462 194.26 272.451 194.387 272.534 195.252C272.595 195.856 272.008 196.875 270.972 197.956C271.31 197.092 271.515 196.177 271.559 195.252C269.708 197.164 266.999 198.233 264.355 197.917C262.904 198.776 261.657 200.15 260.997 201.702C260.46 201.342 259.884 201.087 259.285 200.904C259.85 200.915 260.327 200.948 260.615 200.976L260.626 200.971Z" fill="#7CFBD2"/>
<path d="M291.643 166.493C289.205 167.429 286.772 168.366 284.334 169.302C285.115 167.745 286.146 166.499 287.365 165.545C289.354 164.731 291.471 164.243 293.571 163.761C294.391 163.573 295.311 163.401 296.065 163.711C295.051 165.119 293.289 165.861 291.637 166.499L291.643 166.493Z" fill="#7CFBD2"/>
<path style="mix-blend-mode:multiply" opacity="0.4" d="M287.141 172.405C288.792 170.172 291.773 168.593 296.65 167.895C296.572 168.05 296.489 168.199 296.406 168.349C296.384 168.388 296.361 168.421 296.339 168.46C296.273 168.571 296.206 168.681 296.134 168.792C296.106 168.837 296.079 168.881 296.051 168.925C295.985 169.025 295.913 169.125 295.846 169.219C295.818 169.258 295.791 169.296 295.763 169.335C295.663 169.463 295.569 169.585 295.469 169.69C292.455 169.485 288.781 170.998 287.146 172.405H287.141Z" fill="url(#paint21_linear_140_8198)"/>
<path style="mix-blend-mode:multiply" opacity="0.5" d="M285.75 177.614C285.75 177.614 287.424 178.689 289.225 178.412C289.696 178.34 290.355 178.074 291.07 177.731C289.873 179.432 289.153 181.515 288.249 183.427C287.019 186.031 284.62 189.301 281.738 189.345C281.738 189.345 281.783 186.696 282.182 185.167C282.581 183.638 282.669 180.623 285.75 177.614Z" fill="url(#paint22_linear_140_8198)"/>
<path style="mix-blend-mode:multiply" opacity="0.5" d="M239.873 182.529C241.768 182.834 243.552 183.632 244.794 184.929C247.309 187.572 248.628 191.102 249.881 194.526C250.341 195.779 250.8 197.036 251.26 198.289C249.177 195.352 247.609 191.157 245.714 188.043C244.472 186.004 242.306 183.748 239.873 182.529Z" fill="url(#paint23_linear_140_8198)"/>
<path style="mix-blend-mode:multiply" opacity="0.5" d="M271.063 177.132C268.941 185.394 263.882 192.631 257.398 198.549C262.807 192.332 267.5 184.563 271.063 177.132ZM274.25 183.255C272.648 183.327 271.041 183.399 269.44 183.477C271.252 184.153 272.465 183.997 274.25 183.255ZM272.288 190.747L265.19 190.425C267.118 192.038 270.06 191.905 272.288 190.747ZM261.981 197.635C261.089 197.646 260.197 197.657 259.305 197.673C260.08 198.338 261.155 198.244 261.981 197.635Z" fill="url(#paint24_linear_140_8198)"/>
<path style="mix-blend-mode:multiply" opacity="0.5" d="M262.695 160.807C262.778 160.785 262.861 160.758 262.944 160.735C261.515 161.954 259.98 163.057 258.351 164.055C257.619 165.878 256.893 167.706 256.162 169.529L253.912 168.931C253.99 166.847 255.203 164.315 256.927 163.146C258.65 161.982 260.689 161.384 262.69 160.807H262.695Z" fill="url(#paint25_linear_140_8198)"/>
<path d="M269.047 150.767C267.728 152.446 265.894 153.676 263.927 154.496C261.954 155.316 259.843 155.743 257.721 155.998C258.391 153.194 259.871 150.661 261.832 148.556C263.367 147.132 265.063 145.874 266.886 144.843C267.822 144.317 268.864 143.829 269.923 143.979C270.466 144.056 270.992 144.211 271.347 144.477C271.036 146.727 270.178 149.326 269.047 150.761V150.767Z" fill="#7CFBD2"/>
<path d="M285.439 175.675C284.508 177.409 283.095 178.883 281.389 179.864C279.942 180.701 278.291 181.178 276.623 181.266C278.125 178.651 280.491 176.528 283.328 175.492C283.91 175.282 284.852 175.287 285.434 175.675H285.439Z" fill="#7CFBD2"/>
<path d="M143.844 89.4693C148.311 90.4003 153.087 89.8905 157.276 88.0674C157.542 85.1582 157.858 82.0107 157.858 82.0107H143.141C143.141 82.0107 143.567 86.2775 143.844 89.4693Z" fill="url(#paint26_linear_140_8198)"/>
<path d="M60.7359 167.13C65.6344 166.814 70.2392 170.056 72.7937 174.245C75.3483 178.434 76.185 183.433 76.6172 188.32C76.922 191.794 77.0217 195.446 75.5256 198.594C73.6028 202.65 69.1919 205.193 64.7145 205.542C60.2427 205.886 55.7764 204.257 52.0859 201.697C51.7479 193.839 51.9917 184.707 53.8259 177.06C54.3579 174.833 55.0062 172.588 56.2807 170.688C57.5552 168.787 58.4473 167.28 60.7359 167.136V167.13Z" fill="url(#paint27_radial_140_8198)"/>
<path style="mix-blend-mode:multiply" opacity="0.5" d="M76.6114 188.326C76.5061 187.112 76.3731 185.893 76.1958 184.679C75.9187 187.45 75.3424 190.204 74.7329 192.93C75.215 190.265 74.478 187.511 73.2921 185.078C72.1063 182.646 70.4882 180.457 69.0586 178.157C67.9891 176.434 67.0194 174.639 66.1716 172.793C65.4235 171.175 64.7641 169.518 64.1933 167.828C64.149 167.701 64.1102 167.579 64.0714 167.463C62.9853 167.186 61.8715 167.058 60.73 167.136C58.447 167.285 57.5549 168.787 56.2748 170.688C55.0003 172.588 54.3575 174.838 53.82 177.06C51.9859 184.707 51.742 193.839 52.0801 201.697C55.7706 204.251 60.2368 205.886 64.7087 205.542C69.1805 205.199 73.5969 202.65 75.5197 198.594C77.0159 195.446 76.9161 191.794 76.6114 188.32V188.326Z" fill="url(#paint28_linear_140_8198)"/>
<path style="mix-blend-mode:multiply" opacity="0.5" d="M62.1031 204.445C67.1568 201.242 70.7088 195.773 71.5787 189.855L65.7382 191.545C61.1445 193.357 56.5508 195.175 51.957 196.987C51.9737 198.594 52.0124 200.173 52.0789 201.702C55.7694 204.257 60.2357 205.891 64.7075 205.548C67.3397 205.343 69.9496 204.373 72.0498 202.783C68.8691 203.924 65.4833 204.512 62.1031 204.445Z" fill="url(#paint29_linear_140_8198)"/>
<path d="M44.8329 169.529L42.6441 164.055C39.1641 161.921 36.0943 159.322 33.6007 156.092C31.2733 153.072 30.0376 149.348 29.2286 145.619C29.0014 144.571 30.0099 144.134 31.0739 143.978C32.1378 143.823 33.1795 144.311 34.1105 144.843C36.7315 146.328 39.0976 148.262 41.087 150.523C43.0153 152.717 43.8133 156.014 45.9688 157.981C50.7011 162.281 57.9547 162.558 62.288 167.496C64.5488 170.072 65.3024 173.597 66.1059 176.927C66.9039 180.263 67.9567 183.776 70.5777 185.987C72.9328 187.982 73.2098 190.647 71.8855 193.429C70.5611 196.216 67.8736 198.073 65.2082 199.63C57.4781 204.151 48.9224 207.26 40.0951 208.756C38.4992 209.028 38.6266 208.54 37.3688 207.526C36.1109 206.512 35.3185 205.038 34.587 203.603C33.85 202.162 33.1075 200.677 31.8995 199.602C31.8995 199.602 26.2585 197.674 23.5432 196.715C22.2521 196.261 20.889 195.751 20.0522 194.67C18.9218 193.218 19.0659 191.179 19.2654 189.351C16.3839 189.306 13.9901 186.037 12.7543 183.432C11.5242 180.828 10.6376 177.88 8.40443 176.051C7.65081 175.436 6.78083 174.976 6.01059 174.389C5.24035 173.802 4.53661 173.026 4.34266 172.073C4.14872 171.12 4.60864 169.989 5.53404 169.696C4.83584 168.931 4.1598 167.667 3.84395 166.681C3.52809 165.695 3.73866 164.454 4.6031 163.883C5.41213 163.345 6.4816 163.545 7.42916 163.761C9.97261 164.343 12.5438 164.93 14.8767 166.099C17.6196 167.468 19.1712 170.377 21.6814 172.123C24.5795 174.14 28.608 173.031 31.8607 172.444C34.0883 172.04 36.3547 171.624 38.6045 171.879C40.6326 172.112 42.9156 170.228 44.8384 169.529H44.8329Z" fill="url(#paint30_radial_140_8198)"/>
<path style="mix-blend-mode:multiply" opacity="0.5" d="M57.5056 179.825C55.7546 179 54.1365 177.764 53.2 176.068C52.2636 174.373 52.0752 172.367 52.0807 170.433C52.0862 167.607 52.4741 164.786 53.2111 162.06C50.6178 160.985 48.0522 159.877 45.9686 157.981C45.7082 157.743 45.4644 157.488 45.2427 157.217C45.0654 157.987 44.7052 158.674 44.0403 159.084C43.0595 159.677 41.8016 159.433 40.7155 159.067C36.8532 157.776 33.4952 155.155 31.1457 151.831C31.7996 153.343 32.592 154.79 33.6005 156.092C36.0941 159.322 39.1639 161.921 42.6439 164.055C43.3753 165.878 44.1012 167.706 44.8327 169.529C42.9099 170.228 40.6268 172.112 38.5987 171.879C36.349 171.624 34.0826 172.04 31.855 172.444C30.5583 172.677 29.1342 172.993 27.7101 173.165C27.7433 174.14 27.4774 175.121 26.8512 175.858C26.2361 176.589 25.3052 177.038 24.3521 177.077C22.0026 177.165 19.8138 174.317 18.1902 172.899C16.1731 171.136 14.0564 169.38 11.5074 168.443C10.2994 168 9.0304 167.751 7.82794 167.302C6.62548 166.853 5.45073 166.166 4.76915 165.074C4.58074 164.769 4.44221 164.431 4.35909 164.082C3.69968 164.709 3.56115 165.795 3.84375 166.681C4.1596 167.668 4.83564 168.931 5.53385 169.696C9.33517 169.435 14.1838 171.907 14.6825 173.458C15.148 174.91 6.78618 175.315 4.32584 171.929C4.33138 171.979 4.33139 172.029 4.34247 172.078C4.53641 173.032 5.24016 173.802 6.0104 174.395C6.78064 174.982 7.65616 175.442 8.40423 176.057C10.6318 177.886 11.5184 180.828 12.7541 183.438C13.9899 186.048 16.3837 189.312 19.2652 189.356C19.0657 191.185 18.9271 193.224 20.052 194.676C20.8888 195.756 22.2519 196.266 23.543 196.721C26.2583 197.679 31.8993 199.608 31.8993 199.608C29.7437 198.012 28.3751 196.172 28.4637 195.263C28.5524 194.354 32.9799 194.255 35.612 196.05C38.2441 197.845 40.0505 201.015 40.0505 201.015C40.0505 201.015 44.6664 200.439 46.7555 201.913C47.293 202.295 49.4929 198.638 49.7312 198.294C51.8147 195.357 53.3829 191.163 55.278 188.048C56.9238 185.339 60.2209 182.241 63.5789 181.709C61.6948 181.266 59.2567 180.656 57.5056 179.836V179.825ZM20.3956 183.937C19.1322 182.513 18.168 180.817 17.0043 179.315C16.694 178.916 16.3726 178.529 16.0235 178.163C15.4361 177.548 14.5883 176.905 15.22 175.985C15.6966 175.292 16.9544 175.237 17.6582 175.492C22.7894 177.365 26.3913 182.795 26.1087 188.253C23.8811 187.289 21.997 185.743 20.39 183.937H20.3956Z" fill="url(#paint31_linear_140_8198)"/>
<path style="mix-blend-mode:multiply" opacity="0.5" d="M32.7687 184.12C31.9154 182.712 31.0786 181.149 31.2892 179.52C31.5219 177.703 33.0236 176.29 34.6361 175.414C36.2487 174.539 38.044 174.04 39.6288 173.115C40.5487 172.577 41.4021 171.829 41.9728 170.942C40.8368 171.519 39.6843 172.001 38.6037 171.879C36.3539 171.624 34.0876 172.04 31.86 172.444C30.5633 172.677 29.1392 172.993 27.7151 173.164C27.7483 174.14 27.4823 175.121 26.8562 175.858C26.2411 176.589 25.3101 177.038 24.357 177.077C23.9581 177.093 23.5591 177.016 23.1712 176.883C22.8941 177.42 22.4785 177.891 21.9688 178.201C24.6729 180.778 26.3131 184.519 26.1192 188.264C26.0194 188.22 27.7206 190.542 29.1392 191.157C30.3638 191.689 31.7602 191.783 32.935 192.42C34.1818 193.096 34.9686 194.399 35.1958 195.79C35.3399 195.873 35.484 195.956 35.617 196.05C38.2491 197.845 40.0555 201.015 40.0555 201.015C40.0555 201.015 43.3138 200.616 45.5968 201.359C45.8628 201.314 46.1288 201.27 46.3948 201.209C41.1472 196.133 36.5534 190.376 32.7743 184.131L32.7687 184.12Z" fill="url(#paint32_linear_140_8198)"/>
<path d="M40.3735 200.971C40.3735 200.971 40.368 200.971 40.3624 200.971C40.3015 200.977 40.246 200.982 40.2017 200.988C40.1962 200.988 40.1906 200.988 40.1851 200.988C40.102 200.999 40.0521 201.004 40.0521 201.004C40.0521 201.004 38.2401 197.835 35.6135 196.039C35.4805 195.945 35.3365 195.862 35.1924 195.779C32.5381 194.26 28.5484 194.388 28.4653 195.252C28.4043 195.856 28.9917 196.876 30.0279 197.957C29.6899 197.092 29.4849 196.178 29.4405 195.252C31.2913 197.164 34.001 198.234 36.6442 197.918C38.096 198.777 39.3428 200.151 40.0022 201.702C40.5397 201.342 41.116 201.087 41.7145 200.904C41.1493 200.916 40.6727 200.949 40.3846 200.977L40.3735 200.971Z" fill="#7CFBD2"/>
<path d="M9.3575 166.493C11.7957 167.429 14.2283 168.366 16.6665 169.302C15.8851 167.745 14.8545 166.499 13.6354 165.545C11.646 164.731 9.52928 164.243 7.42913 163.761C6.60902 163.573 5.68916 163.401 4.93555 163.711C5.9496 165.119 7.71173 165.861 9.36304 166.499L9.3575 166.493Z" fill="#7CFBD2"/>
<path style="mix-blend-mode:multiply" opacity="0.4" d="M13.8585 172.405C12.2072 170.172 9.22595 168.593 4.34961 167.895C4.42719 168.05 4.51031 168.199 4.59343 168.349C4.61559 168.388 4.63776 168.421 4.65438 168.46C4.72088 168.571 4.78737 168.681 4.85941 168.792C4.88711 168.837 4.91482 168.881 4.94253 168.925C5.00902 169.025 5.08106 169.125 5.14756 169.219C5.17526 169.258 5.20297 169.296 5.23067 169.335C5.33042 169.463 5.42462 169.585 5.52436 169.69C8.53883 169.485 12.2127 170.998 13.8474 172.405H13.8585Z" fill="url(#paint33_linear_140_8198)"/>
<path style="mix-blend-mode:multiply" opacity="0.5" d="M15.2474 177.614C15.2474 177.614 13.5739 178.689 11.773 178.412C11.302 178.34 10.6426 178.074 9.92773 177.731C11.1247 179.432 11.845 181.515 12.7483 183.427C13.9784 186.031 16.3778 189.301 19.2593 189.345C19.2593 189.345 19.2149 186.696 18.816 185.167C18.417 183.638 18.3283 180.623 15.2474 177.614Z" fill="url(#paint34_linear_140_8198)"/>
<path style="mix-blend-mode:multiply" opacity="0.5" d="M61.1178 182.529C59.2227 182.834 57.4384 183.632 56.1972 184.929C53.6814 187.572 52.3626 191.102 51.1102 194.526C50.6503 195.779 50.1904 197.036 49.7305 198.289C51.814 195.352 53.3822 191.157 55.2773 188.043C56.5186 186.004 58.6852 183.748 61.1178 182.529Z" fill="url(#paint35_linear_140_8198)"/>
<path style="mix-blend-mode:multiply" opacity="0.5" d="M43.6008 198.549C37.1174 192.631 32.0582 185.394 29.9359 177.132C33.499 184.563 38.198 192.332 43.6008 198.549ZM31.554 183.477C29.9525 183.405 28.3456 183.333 26.7441 183.255C28.5284 183.997 29.7475 184.153 31.554 183.477ZM35.8097 190.425L28.7113 190.747C30.9389 191.905 33.8869 192.038 35.8097 190.425ZM41.689 197.673C40.7969 197.662 39.9047 197.651 39.0126 197.635C39.8327 198.239 40.9077 198.333 41.689 197.673Z" fill="url(#paint36_linear_140_8198)"/>
<path style="mix-blend-mode:multiply" opacity="0.5" d="M38.3021 160.807C38.219 160.785 38.1359 160.758 38.0527 160.735C39.4824 161.954 41.0173 163.057 42.6465 164.055C43.3779 165.878 44.1038 167.706 44.8353 169.529L47.085 168.931C47.0075 166.847 45.7939 164.315 44.0706 163.146C42.3472 161.982 40.308 161.384 38.3076 160.807H38.3021Z" fill="url(#paint37_linear_140_8198)"/>
<path d="M31.95 150.767C33.2689 152.446 35.103 153.676 37.0702 154.496C39.0429 155.316 41.1541 155.743 43.2764 155.998C42.6059 153.194 41.1264 150.661 39.1648 148.556C37.6298 147.132 35.9342 145.874 34.1111 144.843C33.1747 144.317 32.1329 143.829 31.0745 143.979C30.5315 144.056 30.005 144.211 29.6504 144.477C29.9607 146.727 30.8196 149.326 31.95 150.761V150.767Z" fill="#7CFBD2"/>
<path d="M15.5527 175.675C16.4837 177.409 17.8967 178.883 19.6034 179.864C21.0497 180.701 22.701 181.178 24.3634 181.266C22.8617 178.651 20.4956 176.528 17.6584 175.492C17.0766 175.282 16.1346 175.287 15.5527 175.675Z" fill="#7CFBD2"/>
<path d="M162.309 254.694L200.206 254.655C196.216 235.521 186.347 195.048 182.407 176.097C182.407 176.097 193.119 156.026 193.773 149.099C194.432 142.173 190.825 121.991 190.825 121.991L196.133 112.887C196.133 112.887 204.44 113.785 196.815 109.54C190.542 106.049 168.044 97.8701 168.044 97.8701C168.044 97.8701 172.466 125.277 166.316 143.104C160.165 160.924 153.881 172.86 153.881 172.86C156.906 200.04 159.284 227.52 162.304 254.7L162.309 254.694Z" fill="url(#paint38_linear_140_8198)"/>
<path style="mix-blend-mode:multiply" opacity="0.3" d="M157.895 212.043C158.738 220.665 159.58 229.287 160.461 237.893C160.461 237.909 160.461 237.921 160.461 237.937L162.229 254.677H200.125C196.158 235.538 186.328 195.053 182.41 176.096C182.41 176.096 193.143 156.037 193.808 149.11C193.825 148.905 193.842 148.689 193.853 148.467C193.853 148.395 193.858 148.312 193.864 148.24C193.869 148.085 193.875 147.93 193.88 147.769C193.88 147.67 193.88 147.564 193.88 147.459C193.88 147.315 193.88 147.171 193.88 147.027C193.88 146.905 193.88 146.777 193.88 146.65C193.88 146.517 193.88 146.378 193.875 146.245C193.875 146.101 193.869 145.952 193.864 145.802C193.864 145.686 193.853 145.564 193.853 145.447C193.847 145.27 193.842 145.098 193.831 144.921C193.803 144.395 193.77 143.846 193.731 143.281C193.731 143.259 193.731 143.237 193.731 143.214C189.115 150.174 174.879 169.369 156.377 172.461L157.89 211.949L157.901 212.059L157.895 212.043Z" fill="url(#paint39_linear_140_8198)"/>
<path style="mix-blend-mode:multiply" opacity="0.3" d="M174.572 254.677H162.232L160.464 237.937C160.464 237.937 160.464 237.909 160.464 237.893C160.171 234.995 159.882 232.091 159.594 229.193C163.562 238.236 168.604 246.814 174.578 254.677H174.572ZM157.117 191.894C163.318 195.978 169.519 200.057 175.719 204.141C179.975 206.945 184.325 209.832 187.328 213.949C192.288 220.759 192.775 230.024 190.603 238.164C189.041 244.021 186.264 249.435 183.172 254.672H200.123C197.281 240.957 191.423 216.276 186.896 196.416L157.051 190.199L157.117 191.889V191.894Z" fill="url(#paint40_linear_140_8198)"/>
<path style="mix-blend-mode:multiply" opacity="0.3" d="M166.719 225.126C173.706 224.571 180.589 222.682 186.883 219.59C186.883 219.59 190.037 241.029 181.026 243.805C172.016 246.587 166.719 225.126 166.719 225.126Z" fill="url(#paint41_linear_140_8198)"/>
<path style="mix-blend-mode:multiply" opacity="0.5" d="M182.41 176.102C182.41 176.102 188.423 164.87 191.725 156.309C182.782 170.245 163.021 188.431 163.021 188.431C163.021 188.431 178.243 181.272 182.41 176.097V176.102Z" fill="url(#paint42_linear_140_8198)"/>
<path d="M166.682 115.63C167.103 107.384 166.682 98.474 161.695 91.8965C161.695 91.8965 180.253 105.135 179.737 108.637C179.217 112.139 171.692 113.679 171.692 113.679C171.692 113.679 180.026 119.47 176.856 130.087C173.686 140.699 153.898 172.833 153.898 172.833C161.889 154.812 165.685 135.318 166.688 115.63H166.682Z" fill="url(#paint43_linear_140_8198)"/>
<path d="M159.189 158.83C163.628 144.888 165.933 130.314 166.681 115.63C166.892 111.457 166.886 107.118 166.188 102.99C169.518 116.317 168.31 130.796 159.189 158.83Z" fill="white"/>
<path d="M158.818 159.966C158.635 160.514 158.464 161.052 158.275 161.612C158.17 161.927 158.07 162.216 157.965 162.515C158.259 161.667 158.541 160.819 158.818 159.966Z" fill="white"/>
<path d="M157.947 162.564C157.703 163.268 157.46 163.939 157.232 164.532C157.471 163.878 157.72 163.224 157.947 162.564Z" fill="white"/>
<path style="mix-blend-mode:multiply" opacity="0.5" d="M186.883 219.59C180.589 222.682 173.712 224.571 166.719 225.126L186.883 219.59Z" fill="url(#paint44_linear_140_8198)"/>
<path d="M104.461 112.904L109.78 122.002C109.78 122.002 106.195 142.184 106.86 149.11C107.525 156.037 118.258 176.097 118.258 176.097C114.341 195.053 104.511 235.538 100.543 254.678H138.44C141.432 227.492 143.776 200.007 146.774 172.827C146.774 172.827 140.479 160.897 134.306 143.082C128.133 125.266 132.527 97.8535 132.527 97.8535C132.527 97.8535 110.041 106.055 103.774 109.551C96.1543 113.807 104.461 112.898 104.461 112.898V112.904Z" fill="url(#paint45_linear_140_8198)"/>
<path style="mix-blend-mode:multiply" opacity="0.3" d="M144.297 172.445C125.79 169.353 111.554 150.158 106.944 143.198C106.777 145.553 106.722 147.636 106.866 149.11C107.531 156.037 118.264 176.096 118.264 176.096L136.878 214.06L140.214 237.926C140.214 237.926 140.214 237.921 140.214 237.915C141.095 229.298 141.937 220.671 142.779 212.043L142.79 211.932L144.303 172.445H144.297Z" fill="url(#paint46_linear_140_8198)"/>
<path style="mix-blend-mode:multiply" opacity="0.3" d="M133.945 225.126C126.958 224.571 120.075 222.682 113.781 219.59C113.781 219.59 110.628 241.029 119.638 243.805C128.648 246.587 133.945 225.126 133.945 225.126Z" fill="url(#paint47_linear_140_8198)"/>
<path style="mix-blend-mode:multiply" opacity="0.5" d="M108.945 156.309C112.248 164.859 118.243 176.074 118.254 176.097C122.427 181.272 137.643 188.431 137.643 188.431C137.643 188.431 117.883 170.239 108.939 156.309H108.945Z" fill="url(#paint48_linear_140_8198)"/>
<path d="M133.982 115.63C133.561 107.384 133.982 98.474 138.969 91.8965C138.969 91.8965 120.411 105.135 120.927 108.637C121.447 112.139 128.973 113.679 128.973 113.679C128.973 113.679 120.638 119.47 123.808 130.087C126.978 140.699 146.766 172.833 146.766 172.833C138.775 154.812 134.979 135.318 133.976 115.63H133.982Z" fill="url(#paint49_linear_140_8198)"/>
<path d="M141.473 158.83C137.035 144.888 134.729 130.314 133.981 115.63C133.771 111.457 133.776 107.118 134.474 102.99C131.144 116.317 132.352 130.796 141.473 158.83Z" fill="white"/>
<path d="M141.852 159.966C142.034 160.514 142.206 161.052 142.395 161.612C142.5 161.927 142.6 162.216 142.705 162.515C142.411 161.667 142.129 160.819 141.852 159.966Z" fill="white"/>
<path d="M142.719 162.564C142.963 163.268 143.206 163.939 143.434 164.532C143.195 163.878 142.946 163.224 142.719 162.564Z" fill="white"/>
<path style="mix-blend-mode:multiply" opacity="0.5" d="M113.779 219.59C120.074 222.682 126.951 224.571 133.944 225.126L113.779 219.59Z" fill="url(#paint50_linear_140_8198)"/>
<path d="M169.473 53.0685C169.113 53.1959 168.825 53.4619 168.67 53.8055C169.03 53.7279 169.285 53.5616 169.473 53.2901C169.523 53.2125 169.573 53.1239 169.617 53.0297C169.568 53.0352 169.518 53.0574 169.473 53.074V53.0685ZM169.457 52.3093C169.113 52.4368 168.842 52.7249 168.731 53.0796C169.047 52.9964 169.274 52.7471 169.468 52.47C169.518 52.4035 169.568 52.3259 169.617 52.2539C169.568 52.2705 169.507 52.2872 169.457 52.3149V52.3093Z" fill="#131163"/>
<path d="M131.525 53.0686C131.475 53.052 131.431 53.0354 131.381 53.0243C131.425 53.1241 131.475 53.2183 131.53 53.3014C131.713 53.5674 131.963 53.7336 132.317 53.8001C132.168 53.4565 131.874 53.1906 131.525 53.0631V53.0686ZM131.542 52.3095C131.492 52.2818 131.431 52.2652 131.381 52.2485C131.431 52.3261 131.481 52.3981 131.53 52.4757C131.724 52.7528 131.946 52.9911 132.267 53.0742C132.157 52.7251 131.885 52.4314 131.542 52.3039V52.3095Z" fill="#131163"/>
<path d="M173.222 50.763C173.222 50.763 176.923 44.1689 182.304 47.9203C187.685 51.6718 181.722 65.4142 175.854 65.1759C172.945 65.054 171.881 60.6985 171.881 60.6985L173.216 50.763H173.222Z" fill="url(#paint51_linear_140_8198)"/>
<path d="M181.879 51.8877C178.316 53.0957 175.44 56.4537 174.969 60.2218C174.886 60.8646 174.969 61.5517 175.324 62.0948C175.678 62.6378 176.343 62.998 176.981 62.8705C177.873 62.6932 178.349 61.7069 178.565 60.8203C178.937 59.2909 178.937 57.6728 178.582 56.1434C179.319 54.819 180.682 52.8076 181.885 51.8932L181.879 51.8877Z" fill="url(#paint52_linear_140_8198)"/>
<path opacity="0.7" d="M173.18 51.1008L172.748 54.3314L173.302 55.0573C176.522 56.9912 180.705 57.0854 184.097 55.5062C184.551 53.4559 184.545 51.4444 183.88 49.8928C180.306 49.1891 176.516 49.6269 173.186 51.1064L173.18 51.1008Z" fill="url(#paint53_linear_140_8198)"/>
<path d="M173.22 50.763C173.22 50.763 176.922 44.1689 182.303 47.9203C182.945 48.3692 183.422 48.9621 183.76 49.6547C182.613 49.217 181.355 49.0119 180.142 49.0563C177.709 49.1449 175.409 50.0149 173.182 51.0401L173.22 50.763Z" fill="url(#paint54_linear_140_8198)"/>
<path d="M127.766 50.763C127.766 50.763 124.064 44.1689 118.683 47.9203C113.303 51.6718 119.265 65.4142 125.134 65.1759C128.043 65.054 129.107 60.6985 129.107 60.6985L127.771 50.763H127.766Z" fill="url(#paint55_linear_140_8198)"/>
<path d="M119.111 51.8877C122.674 53.0957 125.55 56.4537 126.021 60.2218C126.104 60.8646 126.021 61.5517 125.666 62.0948C125.312 62.6378 124.647 62.998 124.01 62.8705C123.117 62.6932 122.641 61.7069 122.425 60.8203C122.053 59.2909 122.053 57.6728 122.408 56.1434C121.671 54.819 120.308 52.8076 119.105 51.8932L119.111 51.8877Z" fill="url(#paint56_linear_140_8198)"/>
<path d="M127.764 50.763C127.764 50.763 124.063 44.1689 118.682 47.9203C118.039 48.3692 117.563 48.9621 117.225 49.6547C118.372 49.217 119.63 49.0119 120.843 49.0563C123.276 49.1449 125.575 50.0149 127.803 51.0401L127.764 50.763Z" fill="url(#paint57_linear_140_8198)"/>
<path d="M150.504 14.5288C171.694 14.5288 177.174 37.6748 177.174 37.6748C177.174 37.6748 174.204 67.5202 171.295 72.9451C170.425 74.5632 162.911 86.8648 150.51 86.8648H150.499C138.092 86.8648 130.583 74.5632 129.713 72.9451C126.804 67.5202 123.834 37.6748 123.834 37.6748C123.834 37.6748 129.309 14.5288 150.504 14.5288Z" fill="url(#paint58_linear_140_8198)"/>
<path d="M150.505 14.5288H150.494C138.879 14.5288 131.991 21.4776 128.129 27.7614L129.758 32.2609C132.828 31.1471 136.38 31.0862 139.544 31.8897C141.162 30.2716 143.561 29.7341 145.833 29.9724C148.111 30.2107 150.25 31.5184 151.497 33.4357C152.749 35.3585 153.22 37.9241 155.143 39.1765C156.744 40.2182 158.817 39.991 160.728 39.9966C162.64 39.9966 164.873 40.5064 165.649 42.2574C164.99 40.0132 163.072 38.1846 160.795 37.6415C165.023 37.6637 169.074 40.6671 170.315 44.7122C171.046 47.1005 170.869 49.6606 171.135 52.1431C171.401 54.6256 172.304 57.2799 174.449 58.5599C174.482 58.5765 174.51 58.5932 174.543 58.6098C176.061 48.7352 177.158 37.6859 177.158 37.6859C177.158 37.6859 171.683 14.5399 150.488 14.5399L150.505 14.5288Z" fill="url(#paint59_linear_140_8198)"/>
<path d="M127.807 31.5406C132.567 27.0355 137.886 30.3049 139.538 31.8897C139.538 31.8897 148.797 23.1899 153.302 28.2823C157.807 33.3748 156.56 16.7509 147.733 17.9977C138.9 19.2445 127.807 31.5406 127.807 31.5406Z" fill="url(#paint60_linear_140_8198)"/>
<path d="M146.462 41.4102C146.462 41.4102 146.307 56.5988 145.431 60.3835C145.431 60.3835 134.975 61.3366 132.437 57.9675C129.899 54.5929 130.414 50.387 132.952 45.8044L135.401 43.7652L146.467 41.4102H146.462Z" fill="url(#paint61_linear_140_8198)"/>
<path d="M146.461 41.4099C141.197 40.213 136.115 41.4986 132.951 45.8042C135.306 44.4909 137.789 43.6819 140.642 43.4103C141.895 43.294 144.394 44.2526 145.502 43.7207C146.616 43.1887 146.533 42.5459 146.461 41.4099Z" fill="#131163"/>
<path d="M145.015 55.0747C145.015 55.0747 143.907 48.8629 139.928 47.1395C136.238 45.5381 133.112 48.0151 132.043 50.0487C132.043 50.0487 134.803 47.6161 139.164 48.4694C143.525 49.3173 145.021 55.0747 145.021 55.0747H145.015Z" fill="url(#paint62_linear_140_8198)"/>
<path d="M134.091 58.6322C134.867 59.2473 135.853 59.613 136.867 59.7903C137.881 59.9676 138.923 59.9621 139.948 59.9011C139.638 59.9178 139.15 59.685 138.856 59.5908C138.485 59.4689 138.114 59.3359 137.754 59.1919C137.039 58.9037 136.341 58.5712 135.681 58.1944C135.011 57.8121 134.373 57.3854 133.769 56.9199C133.526 56.7315 133.265 56.4101 132.955 56.3215C132.561 56.2051 132.645 56.4877 132.728 56.726C132.977 57.4574 133.454 58.1279 134.091 58.6377V58.6322Z" fill="#131163"/>
<path d="M132.357 50.9299C134.097 48.3366 138.884 47.8046 142.093 50.4368C145.301 53.0689 145.628 56.7982 144.919 57.9674C144.215 59.1366 138.009 62.0125 133.803 57.8233C131.642 55.6677 131.354 52.4316 132.357 50.9299Z" fill="#FFEBED"/>
<path d="M140.003 57.9111C142.365 57.5268 143.968 55.3004 143.584 52.9382C143.2 50.576 140.973 48.9727 138.611 49.3569C136.249 49.7412 134.646 51.9676 135.03 54.3298C135.414 56.692 137.64 58.2953 140.003 57.9111Z" fill="url(#paint63_linear_140_8198)"/>
<path d="M142.299 53.6339C142.299 55.2852 140.958 56.6262 139.307 56.6262C137.655 56.6262 136.314 55.2852 136.314 53.6339C136.314 51.9826 137.655 50.6416 139.307 50.6416C140.958 50.6416 142.299 51.9826 142.299 53.6339Z" fill="url(#paint64_linear_140_8198)"/>
<path d="M141.237 51.2734C141.237 51.2734 141.176 51.2734 141.154 51.2845C140.677 51.3178 140.3 51.7167 140.3 52.2099C140.3 52.7031 140.716 53.1353 141.237 53.1353C141.619 53.1353 141.963 52.8915 142.096 52.5535C142.14 52.4426 142.162 52.3374 142.162 52.2099C142.162 51.6946 141.747 51.2734 141.237 51.2734ZM137.94 55.446C137.707 55.2853 137.38 55.3795 137.064 55.6067C136.715 55.8395 136.372 56.2218 136.144 56.5931C135.917 56.9588 135.829 57.3301 135.978 57.4963C136.211 57.7568 136.627 57.6238 137.037 57.319C137.397 57.053 137.746 56.6596 137.94 56.2938C138.134 55.9337 138.173 55.6067 137.94 55.4516V55.446Z" fill="white"/>
<path d="M145.105 55.3075C145.105 55.3075 144.091 49.2287 139.198 47.8268C133.529 46.2032 131.468 51.0075 131.468 51.0075L130.232 50.409C130.232 50.409 131.036 52.0049 131.801 52.5757C131.801 52.5757 133.43 48.6968 137.12 48.6968C142.905 48.6968 145.105 55.302 145.105 55.302V55.3075Z" fill="#131163"/>
<path d="M154.525 41.4102C154.525 41.4102 154.68 56.5988 155.556 60.3835C155.556 60.3835 166.012 61.3366 168.55 57.9675C171.088 54.5929 170.573 50.387 168.035 45.8044L165.585 43.7652L154.52 41.4102H154.525Z" fill="url(#paint65_linear_140_8198)"/>
<path d="M154.527 41.4099C159.792 40.213 164.873 41.4986 168.037 45.8042C165.682 44.4909 163.2 43.6819 160.346 43.4103C159.093 43.294 156.594 44.2526 155.486 43.7207C154.372 43.1887 154.455 42.5459 154.527 41.4099Z" fill="#131163"/>
<path d="M155.972 55.0747C155.972 55.0747 157.081 48.8629 161.059 47.1395C164.75 45.5381 167.875 48.0151 168.944 50.0487C168.944 50.0487 166.185 47.6161 161.824 48.4694C157.463 49.3173 155.967 55.0747 155.967 55.0747H155.972Z" fill="url(#paint66_linear_140_8198)"/>
<path d="M166.904 58.6322C166.128 59.2473 165.142 59.613 164.128 59.7903C163.114 59.9676 162.072 59.9621 161.047 59.9011C161.357 59.9178 161.845 59.685 162.139 59.5908C162.51 59.4689 162.881 59.3359 163.241 59.1919C163.956 58.9037 164.654 58.5712 165.314 58.1944C165.984 57.8121 166.621 57.3854 167.225 56.9199C167.469 56.7315 167.73 56.4101 168.04 56.3215C168.433 56.2051 168.35 56.4877 168.267 56.726C168.018 57.4574 167.541 58.1279 166.904 58.6377V58.6322Z" fill="#131163"/>
<path d="M168.636 50.9299C166.896 48.3366 162.108 47.8046 158.899 50.4368C155.691 53.0689 155.364 56.7982 156.073 57.9674C156.777 59.1366 162.983 62.0125 167.189 57.8233C169.35 55.6677 169.638 52.4316 168.636 50.9299Z" fill="#FFEBED"/>
<path d="M165.939 54.4003C166.364 52.0451 164.799 49.7913 162.444 49.3663C160.089 48.9412 157.835 50.5059 157.41 52.8611C156.985 55.2162 158.55 57.47 160.905 57.8951C163.26 58.3201 165.514 56.7554 165.939 54.4003Z" fill="url(#paint67_linear_140_8198)"/>
<path d="M158.691 53.6339C158.691 55.2852 160.032 56.6262 161.684 56.6262C163.335 56.6262 164.676 55.2852 164.676 53.6339C164.676 51.9826 163.335 50.6416 161.684 50.6416C160.032 50.6416 158.691 51.9826 158.691 53.6339Z" fill="url(#paint68_linear_140_8198)"/>
<path d="M158.826 52.2099C158.826 52.3374 158.854 52.4426 158.893 52.5535C159.026 52.897 159.369 53.1353 159.752 53.1353C160.267 53.1353 160.688 52.7197 160.688 52.2099C160.688 51.7001 160.311 51.3178 159.835 51.2845C159.807 51.2734 159.774 51.2734 159.752 51.2734C159.242 51.2734 158.826 51.689 158.826 52.2099ZM163.049 56.2938C163.243 56.6596 163.592 57.053 163.952 57.319C164.362 57.6182 164.778 57.7512 165.01 57.4963C165.16 57.3301 165.071 56.9643 164.844 56.5931C164.617 56.2274 164.279 55.8395 163.924 55.6067C163.608 55.3795 163.281 55.2909 163.049 55.446C162.816 55.6067 162.855 55.9281 163.049 56.2883V56.2938Z" fill="white"/>
<path d="M155.885 55.3075C155.885 55.3075 156.899 49.2287 161.792 47.8268C167.461 46.2032 169.522 51.0075 169.522 51.0075L170.758 50.409C170.758 50.409 169.954 52.0049 169.189 52.5757C169.189 52.5757 167.56 48.6968 163.87 48.6968C158.085 48.6968 155.885 55.302 155.885 55.302V55.3075Z" fill="#131163"/>
<path d="M150.588 56.2883C149.69 54.504 146.504 62.5223 146.504 62.5223C146.504 62.5223 148.177 65.1766 150.494 65.1766C152.81 65.1766 154.517 62.3394 154.517 62.3394C154.517 62.3394 153.22 61.5415 150.582 56.2939L150.588 56.2883Z" fill="#FFB398"/>
<path d="M154.522 62.3394C154.522 62.3394 153.37 64.2511 151.668 64.9382C151.657 64.9382 151.657 64.9493 151.652 64.9493C151.292 65.0934 150.909 65.182 150.499 65.182C148.177 65.182 146.504 62.5278 146.504 62.5278C149.424 63.9796 152.311 63.2426 153.685 62.7162C154.217 62.5222 154.522 62.3504 154.522 62.3504V62.3394Z" fill="url(#paint69_linear_140_8198)"/>
<path d="M154.524 62.3392C154.524 62.3392 153.371 64.2509 151.67 64.938C153.282 63.8464 153.687 62.7104 153.687 62.7104C153.687 62.7104 150.213 58.6043 150.346 54.2378C151.936 60.0561 154.463 61.918 154.524 62.3447V62.3392Z" fill="#CB4D7A"/>
<path d="M148.296 63.9849C148.041 63.8409 147.759 63.7577 147.471 63.6968C147.897 64.1179 148.446 64.5612 149.083 64.8494C148.911 64.4892 148.64 64.1844 148.296 63.9849Z" fill="#9F4A8B"/>
<path d="M135.052 66.6221C137.164 66.6221 138.876 65.4189 138.876 63.9346C138.876 62.4503 137.164 61.2471 135.052 61.2471C132.94 61.2471 131.229 62.4503 131.229 63.9346C131.229 65.4189 132.94 66.6221 135.052 66.6221Z" fill="url(#paint70_linear_140_8198)"/>
<path d="M165.943 66.6221C168.054 66.6221 169.766 65.4189 169.766 63.9346C169.766 62.4503 168.054 61.2471 165.943 61.2471C163.831 61.2471 162.119 62.4503 162.119 63.9346C162.119 65.4189 163.831 66.6221 165.943 66.6221Z" fill="url(#paint71_linear_140_8198)"/>
<path d="M158.54 69.1658C158.928 69.5925 159.482 70.0081 160.091 70.0247C160.23 70.0247 160.374 69.9804 160.452 69.8751C160.607 69.6534 160.302 69.2822 160.147 69.127C159.892 68.8666 159.559 68.6948 159.233 68.523C158.95 68.3734 158.545 68.2459 158.363 68.4898C158.207 68.6893 158.363 68.9774 158.54 69.1769V69.1658Z" fill="url(#paint72_linear_140_8198)"/>
<path d="M140.257 68.7115C139.969 69.2823 140.185 69.8087 141.233 69.1991C141.432 69.0828 141.637 68.9553 141.776 68.778C141.914 68.5951 141.97 68.3458 141.859 68.1463C141.698 67.8748 141.266 67.836 140.978 67.9911C140.645 68.1629 140.396 68.4455 140.263 68.7115H140.257Z" fill="url(#paint73_linear_140_8198)"/>
<path d="M140.92 68.5342C146.251 72.1194 153.925 72.5793 159.5 69.2656C155.627 70.0026 151.853 67.8914 148.899 68.7669C147.608 69.1493 144.477 69.8142 140.92 68.5342Z" fill="url(#paint74_linear_140_8198)"/>
<path d="M159.5 69.2712C159.5 69.2712 156.635 73.1168 154.108 74.48C151.581 75.8431 148.983 75.3278 147.265 74.6185C144.788 73.5934 140.92 68.5342 140.92 68.5342C140.92 68.5342 143.646 70.5013 149.321 70.5789C154.973 70.6565 156.596 70.8504 159.5 69.2656V69.2712Z" fill="url(#paint75_linear_140_8198)"/>
<path d="M142.595 69.377C143.969 69.92 146.191 70.5351 149.317 70.5794C153.988 70.6459 155.911 70.7844 158.077 69.9366H158.083C158.083 69.9366 157.196 73.0675 150.525 73.073C144.374 73.0785 142.584 69.377 142.584 69.377H142.595Z" fill="#7A336D"/>
<path d="M155.223 70.5679C154.292 70.9004 152.568 71.3381 150.108 71.2273C148.235 71.1442 146.307 70.6012 144.811 70.0581C146.024 70.3407 147.526 70.5236 149.332 70.5457C152.02 70.5845 153.787 70.6787 155.223 70.5679Z" fill="#FFEBED"/>
<path d="M157.201 71.1832C155.118 71.5988 153.012 71.9257 150.89 71.9756C148.429 72.031 145.925 71.693 143.691 70.751C144.811 71.8094 146.928 73.1337 150.546 73.1337C154.342 73.1337 156.248 72.0643 157.201 71.1887V71.1832Z" fill="#FFEBED"/>
<path d="M139.538 31.8893C139.538 31.8893 141.245 25.3617 142.569 23.4998C143.683 21.9371 145.379 20.3856 147.268 20.7402C148.388 20.9508 149.302 21.8319 149.795 22.857C150.288 23.8821 150.421 25.0458 150.449 26.1873C150.493 28.16 150.255 30.1438 150.432 32.1054C150.615 34.0726 151.297 36.1062 152.821 37.353C154.333 38.5943 156.411 38.8658 158.368 38.9101C160.324 38.9489 162.335 38.8159 164.197 39.4199C166.059 40.0239 167.782 41.6198 167.793 43.5759C168.27 42.2127 168.076 40.6556 167.405 39.37C166.735 38.09 165.521 37.1037 164.13 36.7158C166.015 35.9511 168.37 37.4361 169.422 39.1761C170.475 40.9161 170.625 43.0439 170.664 45.0776C170.702 47.1112 170.664 49.2058 171.412 51.0954C172.542 53.9492 175.546 55.9551 178.615 55.9053C181.685 55.8554 184.622 53.7552 185.658 50.8627C186.041 49.7988 186.179 48.6572 186.512 47.5767C186.844 46.4961 187.421 45.4156 188.407 44.8559C189.393 44.2962 190.84 44.4569 191.416 45.4322C191.632 43.8197 191.793 42.1074 191.438 40.5171C191.078 38.9267 190.219 37.3973 188.845 36.5163C187.476 35.6352 185.559 35.5299 184.245 36.4886C186.456 32.6318 185.021 26.9742 181.353 24.4529C179.541 23.2061 177.247 22.6021 175.828 20.9231C174.083 18.8562 174.216 15.8306 173.257 13.2983C172.149 10.3614 169.6 8.18365 166.846 6.68196C161.072 3.54005 153.973 2.94713 147.762 5.07498C141.544 7.20284 136.308 12.0293 133.67 18.0527C131.559 15.6311 127.403 15.0493 124.366 16.0911C121.33 17.1328 118.969 19.704 117.717 22.6575C116.464 25.611 116.232 28.9192 116.536 32.1109C117.029 37.2588 124.898 48.7293 126.023 55.9053C126.023 55.9053 124.543 43.9084 129.436 40.4284C134.147 37.0759 131.836 17.9252 139.527 31.8838L139.538 31.8893Z" fill="url(#paint76_linear_140_8198)"/>
<path d="M180.934 38.8717C181.793 36.439 181.527 33.6351 180.225 31.4075C178.923 29.1799 176.606 27.573 174.069 27.1297C171.536 26.6864 168.694 27.3014 166.538 25.894C162.703 23.4004 164.183 16.8561 160.803 13.7752C158.514 11.6972 154.973 12.0629 151.959 12.7389C148.944 13.415 145.625 14.2462 142.904 12.7777C141.597 12.074 140.605 10.8493 140.112 9.45294C142.367 7.53566 144.966 6.02843 147.764 5.06424C153.981 2.93639 161.08 3.5293 166.848 6.67122C169.602 8.17291 172.151 10.3506 173.26 13.2875C174.213 15.8199 174.085 18.8399 175.831 20.9123C177.244 22.5913 179.543 23.1953 181.355 24.4421C183.19 25.7 184.464 27.7447 185.007 29.9557C184.702 33.2916 183.411 36.6108 180.94 38.8606L180.934 38.8717ZM124.38 16.0914C121.343 17.1332 118.983 19.7043 117.73 22.6578C116.705 25.0794 116.373 27.7392 116.45 30.3769C124.707 26.6531 135.379 21.7491 133.684 18.053C131.572 15.6315 127.416 15.0496 124.38 16.0914Z" fill="url(#paint77_linear_140_8198)"/>
<path style="mix-blend-mode:multiply" opacity="0.5" d="M185.657 50.8684C186.039 49.8045 186.178 48.663 186.51 47.5825C186.604 47.2832 186.715 46.984 186.848 46.6903C186.023 47.0893 185.385 47.8263 184.615 48.3472C183.446 49.1451 181.928 49.4222 180.553 49.0786C178.664 48.6131 177.184 47.0727 176.32 45.3327C175.455 43.5927 175.012 43.4099 174.63 41.5037C172.995 33.3247 164.977 32.9922 160.682 31.5238C156.388 30.0498 155.23 22.5303 155.23 22.5303C155.23 22.5303 154.387 32.7373 156.898 34.3776C159.408 36.0233 161.053 36.2616 164.129 36.716C166.013 35.9513 168.368 37.4363 169.421 39.1763C170.474 40.9163 170.623 43.0441 170.662 45.0778C170.701 47.1114 170.662 49.2061 171.41 51.0956C172.541 53.9494 175.544 55.9553 178.614 55.9055C181.684 55.8556 184.621 53.7555 185.657 50.8629V50.8684Z" fill="url(#paint78_linear_140_8198)"/>
<path d="M139.536 31.8898C139.37 30.1055 139.675 28.2991 140.113 26.5425C140.595 24.7803 141.265 23.0958 142.296 21.4666C142.828 20.6576 143.482 19.8541 144.385 19.2113C145.283 18.5685 146.408 18.1197 147.704 18.1363C148.026 18.1252 148.352 18.2028 148.674 18.2638C148.984 18.3635 149.306 18.4577 149.583 18.6129C150.17 18.8955 150.641 19.3 151.057 19.7156C151.855 20.58 152.342 21.5608 152.686 22.5527C153.024 23.5446 153.129 24.6473 153.162 25.5561C153.185 26.5037 153.151 27.4401 153.057 28.3489C152.874 30.172 152.531 31.912 152.215 33.6021C151.899 35.2977 151.605 36.9379 151.627 38.5781C151.627 39.3983 151.744 40.2017 151.999 40.9664C152.27 41.7201 152.752 42.4183 153.489 42.9391C152.614 42.7563 151.794 42.1689 151.223 41.3931C150.658 40.6118 150.32 39.703 150.076 38.7943C149.621 36.9601 149.649 35.0816 149.727 33.3139C149.81 31.5352 149.993 29.8118 150.043 28.1439C150.07 27.3127 150.076 26.4981 150.015 25.7002C149.965 24.8634 149.887 24.2096 149.655 23.5446C149.444 22.8852 149.123 22.2757 148.74 21.8434C148.352 21.4223 147.976 21.184 147.532 21.1452C147.084 21.0954 146.468 21.2339 145.92 21.5498C145.36 21.8712 144.806 22.3643 144.296 22.9572C143.277 24.1597 142.357 25.6226 141.559 27.1077C140.755 28.6094 140.063 30.1942 139.531 31.8898H139.536Z" fill="#9860FF"/>
<path d="M135.787 17.5598C136.502 16.5181 137.483 15.637 138.58 14.9665C139.677 14.2794 140.902 13.7918 142.171 13.487C143.445 13.1822 144.775 13.0548 146.105 13.1767C147.435 13.293 148.781 13.6421 150.012 14.3126C152.394 15.6148 154.278 17.6984 155.619 19.9537C156.295 21.073 156.911 22.2478 157.442 23.3782C157.974 24.4864 158.54 25.5615 159.166 26.5589C159.803 27.5508 160.523 28.4429 161.349 29.191C162.175 29.9391 163.128 30.5154 164.175 30.9088C164.441 31.003 164.696 31.1083 164.973 31.1748C165.245 31.2524 165.511 31.3355 165.832 31.4075C166.453 31.5627 167.09 31.7289 167.733 31.9395C168.996 32.3662 170.354 32.9425 171.407 34.0396C171.922 34.5771 172.365 35.2255 172.631 35.9403C172.897 36.644 173.014 37.3533 173.063 38.0294C173.147 39.3925 172.997 40.6227 173.141 41.7753C173.252 42.9002 173.706 44.0417 174.637 44.6512C175.086 44.9615 175.668 45.0668 176.244 44.9449C176.809 44.8341 177.369 44.4794 177.618 43.8865C177.524 44.5293 176.987 45.0668 176.36 45.3217C175.734 45.5821 174.964 45.5932 174.305 45.294C172.969 44.6955 172.204 43.3213 171.9 42.0025C171.589 40.6726 171.6 39.3648 171.39 38.2233C171.301 37.6526 171.157 37.1095 170.936 36.6551C170.719 36.2007 170.404 35.8184 170.021 35.4748C169.251 34.8099 168.226 34.361 167.095 34.0563C166.53 33.9011 165.943 33.7737 165.333 33.6573C165.04 33.6074 164.696 33.5243 164.358 33.4412C164.02 33.3691 163.688 33.2472 163.361 33.1364C162.042 32.682 160.778 31.9561 159.731 31.0196C158.673 30.0942 157.814 28.9971 157.104 27.8611C156.39 26.7251 155.819 25.5448 155.292 24.3756C154.777 23.2175 154.301 22.1203 153.719 21.0564C152.561 18.9618 151.12 17.0445 149.153 15.7478C147.263 14.4955 144.742 14.1686 142.354 14.4623C139.965 14.7892 137.56 15.7423 135.787 17.5598Z" fill="#9860FF"/>
<path d="M166.344 14.4453C167.286 15.5425 168.1 16.5067 168.959 17.3988C169.807 18.2965 170.671 19.1166 171.58 19.8924C172.489 20.6682 173.431 21.3941 174.451 22.0978C175.465 22.8071 176.545 23.461 177.77 24.2312C176.373 24.6468 174.894 24.536 173.509 24.137C172.123 23.727 170.827 23.0121 169.724 22.0646C168.621 21.1226 167.712 19.9478 167.097 18.6456C166.488 17.3379 166.155 15.8916 166.344 14.4509V14.4453Z" fill="#9860FF"/>
<path style="mix-blend-mode:multiply" opacity="0.5" d="M130.008 25.2292C128.445 26.4871 127.492 28.3268 126.5 30.0667C125.508 31.8067 124.355 33.5799 122.582 34.5275C120.981 35.3808 119.125 35.4307 117.312 35.0705C117.922 36.7551 118.831 38.7056 119.845 40.7836C121.241 40.5786 122.593 40.0854 123.674 39.1933C125.464 37.7248 126.306 35.4086 126.932 33.1754C127.558 30.9423 128.085 28.6038 129.481 26.7531C130.878 24.9023 133.454 23.6943 135.566 24.664C133.947 23.4781 131.565 23.9769 130.002 25.2347L130.008 25.2292Z" fill="url(#paint79_linear_140_8198)"/>
<path d="M129.449 99.2054C119.735 104.808 119.264 126.463 119.48 133.235H116.92C116.92 133.235 117.125 120.235 120.289 109.828C122.993 100.923 128.579 96.8781 130.718 98.1692L129.449 99.1999V99.2054Z" fill="#131163"/>
<path d="M120.019 127.777C119.936 129.173 119.853 130.575 119.775 131.971C118.417 132.054 117.492 132.298 116.129 132.381C116.362 130.713 116.578 129.079 116.805 127.422C117.88 127.505 118.949 127.621 120.019 127.771V127.777Z" fill="url(#paint80_linear_140_8198)"/>
<path style="mix-blend-mode:multiply" opacity="0.3" d="M119.104 129.649C119.398 129.527 119.675 129.361 119.935 129.173C119.88 130.109 119.825 131.04 119.769 131.977C118.412 132.06 117.486 132.304 116.123 132.387C116.217 131.716 116.306 131.057 116.395 130.392C116.539 130.353 116.683 130.309 116.827 130.276C117.591 130.087 118.373 129.954 119.099 129.649H119.104Z" fill="url(#paint81_linear_140_8198)"/>
<path style="mix-blend-mode:multiply" opacity="0.3" d="M127.484 144.361C129.456 139.543 127.149 134.039 122.331 132.067C117.513 130.095 112.009 132.402 110.037 137.22C108.065 142.038 110.372 147.542 115.19 149.514C120.008 151.486 125.512 149.179 127.484 144.361Z" fill="url(#paint82_linear_140_8198)"/>
<path d="M120.452 148.819C125.279 147.671 128.26 142.828 127.112 138.001C125.965 133.175 121.121 130.193 116.295 131.341C111.469 132.489 108.487 137.332 109.635 142.159C110.783 146.985 115.626 149.967 120.452 148.819Z" fill="white"/>
<path style="mix-blend-mode:multiply" opacity="0.3" d="M120.241 147.922C124.57 146.893 127.245 142.549 126.216 138.22C125.187 133.891 120.844 131.215 116.514 132.244C112.185 133.273 109.51 137.617 110.539 141.946C111.568 146.275 115.911 148.951 120.241 147.922Z" fill="url(#paint83_linear_140_8198)"/>
<path d="M112.186 140.089C112.186 136.676 114.962 133.899 118.375 133.899C121.789 133.899 124.565 136.676 124.565 140.089C124.565 143.502 121.789 146.279 118.375 146.279C114.962 146.279 112.186 143.502 112.186 140.089ZM113.482 140.089C113.482 142.782 115.677 144.976 118.37 144.976C121.063 144.976 123.257 142.782 123.257 140.089C123.257 137.396 121.063 135.202 118.37 135.202C115.677 135.202 113.482 137.396 113.482 140.089Z" fill="#131163"/>
<path style="mix-blend-mode:multiply" opacity="0.3" d="M116.434 140.089C116.434 141.158 117.304 142.028 118.373 142.028C119.443 142.028 120.312 141.158 120.312 140.089C120.312 139.019 119.443 138.149 118.373 138.149C117.304 138.149 116.434 139.019 116.434 140.089Z" fill="url(#paint84_linear_140_8198)"/>
<path style="mix-blend-mode:multiply" opacity="0.3" d="M167.319 159.511C167.779 154.496 168.921 144.998 171.42 137.396L171.06 137.346C172.495 132.957 174.379 129.173 176.839 127.183C178.136 126.136 179.538 125.621 181.017 125.632C181.078 120.401 181.256 114.411 178.435 107.9C175.155 100.33 171.076 99.0778 171.076 99.0778L169.741 97.9917C180.452 99.6153 183.616 117.026 182.486 125.809C183.954 126.175 185.201 127.05 186.204 128.43C188.071 131.001 188.914 135.152 189.174 139.767L188.814 139.718C189.274 147.719 187.938 157.189 187.091 162.154C186.658 164.681 184.314 166.416 181.826 166.083C181.782 166.078 181.743 166.072 181.699 166.066L181.499 166.033C180.402 166.593 178.263 166.526 178.479 164.886C178.695 163.24 180.796 163.734 181.704 164.559L181.932 164.598C183.705 164.908 185.351 163.673 185.65 161.905C186.32 157.954 187.839 147.808 187.334 139.524L186.958 139.474C186.52 133.312 185.107 130.674 184.442 129.754C183.644 128.652 182.685 128.042 181.521 127.887C180.352 127.732 179.277 128.07 178.219 128.918C176.279 130.48 174.65 133.644 173.309 137.64L172.91 137.584C170.295 145.453 169.153 155.649 168.788 159.639C168.621 161.428 169.912 163.052 171.686 163.218L171.913 163.24C173.005 162.681 175.16 162.758 174.944 164.404C174.728 166.044 172.65 165.54 171.736 164.714L171.531 164.692C171.486 164.692 171.442 164.681 171.403 164.676C168.915 164.343 167.092 162.043 167.325 159.494L167.319 159.511Z" fill="url(#paint85_linear_140_8198)"/>
<path d="M182.111 164.487C182.255 163.379 178.753 161.899 178.47 164.022C178.188 166.144 181.967 165.595 182.111 164.487Z" fill="white"/>
<path d="M171.3 163.057C171.444 161.949 175.217 161.434 174.935 163.556C174.652 165.678 171.15 164.166 171.3 163.057Z" fill="white"/>
<path d="M171.391 163.822C171.435 163.827 171.48 163.833 171.519 163.839L172.372 163.927C172.776 163.971 173.137 163.678 173.175 163.273C173.214 162.88 172.937 162.52 172.544 162.47C172.538 162.47 172.527 162.47 172.522 162.47L171.668 162.381C169.895 162.215 168.604 160.613 168.77 158.846C169.319 152.95 171.602 133.317 177.969 128.236C179.105 127.327 180.274 126.972 181.548 127.139C182.817 127.305 183.859 127.959 184.718 129.128C189.544 135.689 186.641 155.244 185.632 161.079C185.333 162.824 183.687 164.044 181.914 163.739L181.066 163.6C181.066 163.6 181.055 163.6 181.044 163.6C180.651 163.55 180.29 163.816 180.224 164.21C180.163 164.609 180.435 164.986 180.833 165.052L181.681 165.191C181.726 165.196 181.764 165.202 181.809 165.207C184.302 165.54 186.646 163.822 187.073 161.328C188.392 153.665 190.924 135.096 185.893 128.258C184.796 126.773 183.399 125.903 181.737 125.681C180.074 125.46 178.495 125.931 177.054 127.083C170.416 132.375 168.028 150.961 167.307 158.707C167.074 161.223 168.892 163.489 171.386 163.822H171.391Z" fill="#A8B3E9"/>
<path d="M176.835 126.801C178.132 125.764 179.534 125.255 181.013 125.271C181.074 120.112 181.462 114.044 178.647 107.628C175.367 100.158 171.078 99.0885 171.078 99.0885L169.742 98.0024C180.454 99.6094 183.618 116.787 182.487 125.46C183.956 125.82 185.202 126.684 186.205 128.047C188.073 130.585 188.915 134.68 189.175 139.235L186.953 138.942C186.516 132.863 185.103 130.253 184.438 129.35C183.64 128.263 182.681 127.659 181.517 127.504C180.348 127.349 179.273 127.682 178.215 128.524C176.275 130.07 174.646 133.19 173.305 137.135L171.061 136.836C172.496 132.503 174.38 128.768 176.841 126.806L176.835 126.801Z" fill="#131163"/>
<path d="M283.589 155.671C284.611 155.671 285.44 154.843 285.44 153.821C285.44 152.798 284.611 151.97 283.589 151.97C282.567 151.97 281.738 152.798 281.738 153.821C281.738 154.843 282.567 155.671 283.589 155.671Z" fill="white"/>
<path d="M277.719 164.532C277.945 164.532 278.129 164.348 278.129 164.121C278.129 163.895 277.945 163.711 277.719 163.711C277.492 163.711 277.309 163.895 277.309 164.121C277.309 164.348 277.492 164.532 277.719 164.532Z" fill="white"/>
<path d="M279.774 140.128C280.181 140.128 280.511 139.798 280.511 139.391C280.511 138.984 280.181 138.654 279.774 138.654C279.367 138.654 279.037 138.984 279.037 139.391C279.037 139.798 279.367 140.128 279.774 140.128Z" fill="white"/>
<path d="M236.106 161.478C236.106 162.293 235.447 162.952 234.632 162.952C233.818 162.952 233.158 162.293 233.158 161.478C233.158 160.664 233.818 160.004 234.632 160.004C235.447 160.004 236.106 160.664 236.106 161.478Z" fill="white"/>
<path d="M258.748 143.015C258.748 143.99 257.956 144.783 256.981 144.783C256.005 144.783 255.213 143.99 255.213 143.015C255.213 142.04 256.005 141.248 256.981 141.248C257.956 141.248 258.748 142.04 258.748 143.015Z" fill="white"/>
<path d="M267.354 167.103C267.354 168.228 266.439 169.142 265.315 169.142C264.19 169.142 263.275 168.228 263.275 167.103C263.275 165.978 264.19 165.064 265.315 165.064C266.439 165.064 267.354 165.978 267.354 167.103Z" fill="white"/>
<path d="M258.433 183.715C258.433 184.774 257.574 185.627 256.521 185.627C255.468 185.627 254.609 184.768 254.609 183.715C254.609 182.663 255.468 181.804 256.521 181.804C257.574 181.804 258.433 182.663 258.433 183.715Z" fill="white"/>
<path d="M263.017 177.399C263.017 177.687 262.784 177.914 262.502 177.914C262.219 177.914 261.986 177.681 261.986 177.399C261.986 177.116 262.219 176.883 262.502 176.883C262.784 176.883 263.017 177.116 263.017 177.399Z" fill="white"/>
<path d="M245.73 172.655C246.204 172.655 246.589 172.271 246.589 171.796C246.589 171.322 246.204 170.938 245.73 170.938C245.256 170.938 244.871 171.322 244.871 171.796C244.871 172.271 245.256 172.655 245.73 172.655Z" fill="white"/>
<path d="M253.118 175.797C253.938 175.797 254.603 175.132 254.603 174.312C254.603 173.492 253.938 172.827 253.118 172.827C252.298 172.827 251.633 173.492 251.633 174.312C251.633 175.132 252.298 175.797 253.118 175.797Z" fill="white"/>
<path d="M252.424 165.806C252.424 166.117 252.175 166.366 251.864 166.366C251.554 166.366 251.305 166.117 251.305 165.806C251.305 165.496 251.554 165.247 251.864 165.247C252.175 165.247 252.424 165.496 252.424 165.806Z" fill="white"/>
<path d="M251.858 179.67C251.858 180.169 251.453 180.568 250.96 180.568C250.467 180.568 250.062 180.163 250.062 179.67C250.062 179.177 250.467 178.772 250.96 178.772C251.453 178.772 251.858 179.177 251.858 179.67Z" fill="white"/>
<path d="M275.745 169.951C275.745 170.711 275.129 171.326 274.37 171.326C273.611 171.326 272.996 170.711 272.996 169.951C272.996 169.192 273.611 168.577 274.37 168.577C275.129 168.577 275.745 169.192 275.745 169.951Z" fill="white"/>
<path d="M251.913 154.746C251.913 155.256 251.498 155.671 250.988 155.671C250.478 155.671 250.062 155.256 250.062 154.746C250.062 154.236 250.478 153.82 250.988 153.82C251.498 153.82 251.913 154.236 251.913 154.746Z" fill="white"/>
<path d="M256.865 147.626C256.865 147.936 256.616 148.185 256.306 148.185C255.995 148.185 255.746 147.936 255.746 147.626C255.746 147.315 255.995 147.066 256.306 147.066C256.616 147.066 256.865 147.315 256.865 147.626Z" fill="white"/>
<path d="M281.035 167.69C281.035 168.394 280.465 168.965 279.761 168.965C279.057 168.965 278.486 168.394 278.486 167.69C278.486 166.986 279.057 166.416 279.761 166.416C280.465 166.416 281.035 166.986 281.035 167.69Z" fill="white"/>
<path d="M270.26 164.299C270.26 164.72 269.916 165.064 269.495 165.064C269.074 165.064 268.73 164.72 268.73 164.299C268.73 163.878 269.074 163.534 269.495 163.534C269.916 163.534 270.26 163.878 270.26 164.299Z" fill="white"/>
<path d="M17.4094 155.671C18.4315 155.671 19.2602 154.843 19.2602 153.821C19.2602 152.798 18.4315 151.97 17.4094 151.97C16.3872 151.97 15.5586 152.798 15.5586 153.821C15.5586 154.843 16.3872 155.671 17.4094 155.671Z" fill="white"/>
<path d="M23.2753 164.532C23.5018 164.532 23.6853 164.348 23.6853 164.121C23.6853 163.895 23.5018 163.711 23.2753 163.711C23.0488 163.711 22.8652 163.895 22.8652 164.121C22.8652 164.348 23.0488 164.532 23.2753 164.532Z" fill="white"/>
<path d="M21.2292 140.128C21.6362 140.128 21.9662 139.798 21.9662 139.391C21.9662 138.984 21.6362 138.654 21.2292 138.654C20.8221 138.654 20.4922 138.984 20.4922 139.391C20.4922 139.798 20.8221 140.128 21.2292 140.128Z" fill="white"/>
<path d="M64.8887 161.478C64.8887 162.293 65.5481 162.952 66.3627 162.952C67.1772 162.952 67.8366 162.293 67.8366 161.478C67.8366 160.664 67.1772 160.004 66.3627 160.004C65.5481 160.004 64.8887 160.664 64.8887 161.478Z" fill="white"/>
<path d="M44.0157 144.783C44.992 144.783 45.7834 143.991 45.7834 143.015C45.7834 142.039 44.992 141.248 44.0157 141.248C43.0395 141.248 42.248 142.039 42.248 143.015C42.248 143.991 43.0395 144.783 44.0157 144.783Z" fill="white"/>
<path d="M33.6406 167.103C33.6406 168.228 34.5549 169.142 35.6798 169.142C36.8047 169.142 37.719 168.228 37.719 167.103C37.719 165.978 36.8047 165.064 35.6798 165.064C34.5549 165.064 33.6406 165.978 33.6406 167.103Z" fill="white"/>
<path d="M44.4762 185.627C45.532 185.627 46.3879 184.771 46.3879 183.715C46.3879 182.66 45.532 181.804 44.4762 181.804C43.4204 181.804 42.5645 182.66 42.5645 183.715C42.5645 184.771 43.4204 185.627 44.4762 185.627Z" fill="white"/>
<path d="M37.9766 177.399C37.9766 177.687 38.2093 177.914 38.4919 177.914C38.7745 177.914 39.0072 177.681 39.0072 177.399C39.0072 177.116 38.7745 176.883 38.4919 176.883C38.2093 176.883 37.9766 177.116 37.9766 177.399Z" fill="white"/>
<path d="M55.2651 172.655C55.7395 172.655 56.124 172.271 56.124 171.796C56.124 171.322 55.7395 170.938 55.2651 170.938C54.7908 170.938 54.4062 171.322 54.4062 171.796C54.4062 172.271 54.7908 172.655 55.2651 172.655Z" fill="white"/>
<path d="M47.8757 175.797C48.6959 175.797 49.3608 175.132 49.3608 174.312C49.3608 173.492 48.6959 172.827 47.8757 172.827C47.0555 172.827 46.3906 173.492 46.3906 174.312C46.3906 175.132 47.0555 175.797 47.8757 175.797Z" fill="white"/>
<path d="M48.5762 165.806C48.5762 166.117 48.8255 166.366 49.1358 166.366C49.4462 166.366 49.6955 166.117 49.6955 165.806C49.6955 165.496 49.4462 165.247 49.1358 165.247C48.8255 165.247 48.5762 165.496 48.5762 165.806Z" fill="white"/>
<path d="M49.1328 179.67C49.1328 180.169 49.5373 180.568 50.0305 180.568C50.5237 180.568 50.9282 180.163 50.9282 179.67C50.9282 179.177 50.5237 178.772 50.0305 178.772C49.5373 178.772 49.1328 179.177 49.1328 179.67Z" fill="white"/>
<path d="M25.25 169.951C25.25 170.711 25.8651 171.326 26.6242 171.326C27.3834 171.326 27.9985 170.711 27.9985 169.951C27.9985 169.192 27.3834 168.577 26.6242 168.577C25.8651 168.577 25.25 169.192 25.25 169.951Z" fill="white"/>
<path d="M50.0055 155.671C50.5166 155.671 50.9309 155.257 50.9309 154.746C50.9309 154.235 50.5166 153.82 50.0055 153.82C49.4944 153.82 49.0801 154.235 49.0801 154.746C49.0801 155.257 49.4944 155.671 50.0055 155.671Z" fill="white"/>
<path d="M44.1348 147.626C44.1348 147.936 44.3841 148.185 44.6944 148.185C45.0047 148.185 45.2541 147.936 45.2541 147.626C45.2541 147.315 45.0047 147.066 44.6944 147.066C44.3841 147.066 44.1348 147.315 44.1348 147.626Z" fill="white"/>
<path d="M19.959 167.691C19.959 168.394 20.5297 168.965 21.2335 168.965C21.9372 168.965 22.508 168.394 22.508 167.691C22.508 166.987 21.9372 166.416 21.2335 166.416C20.5297 166.416 19.959 166.987 19.959 167.691Z" fill="white"/>
<path d="M30.7285 164.299C30.7285 164.72 31.0721 165.064 31.4932 165.064C31.9144 165.064 32.2579 164.72 32.2579 164.299C32.2579 163.878 31.9144 163.534 31.4932 163.534C31.0721 163.534 30.7285 163.878 30.7285 164.299Z" fill="white"/>
</g>
<defs>
<linearGradient id="paint0_linear_140_8198" x1="181.533" y1="157.267" x2="242.941" y2="164.532" gradientUnits="userSpaceOnUse">
<stop stop-color="#D5CDF8"/>
<stop offset="0.25" stop-color="#E2DAF9"/>
<stop offset="0.62" stop-color="#EEE8FA"/>
<stop offset="0.94" stop-color="#F3EDFB"/>
</linearGradient>
<linearGradient id="paint1_linear_140_8198" x1="181.61" y1="162.144" x2="242.465" y2="169.347" gradientUnits="userSpaceOnUse">
<stop stop-color="#9D68C2"/>
<stop offset="1" stop-color="#CCEDFF"/>
</linearGradient>
<linearGradient id="paint2_linear_140_8198" x1="213.542" y1="201.885" x2="221.206" y2="164.121" gradientUnits="userSpaceOnUse">
<stop stop-color="#B1D4F7"/>
<stop offset="1" stop-color="#637EC9"/>
</linearGradient>
<linearGradient id="paint3_linear_140_8198" x1="246.683" y1="147.437" x2="208.603" y2="140.76" gradientUnits="userSpaceOnUse">
<stop stop-color="#D5CDF8"/>
<stop offset="1" stop-color="#F3EDFB"/>
</linearGradient>
<linearGradient id="paint4_linear_140_8198" x1="150.527" y1="89.7293" x2="150.549" y2="93.0319" gradientUnits="userSpaceOnUse">
<stop stop-color="#D5CDF8"/>
<stop offset="0.25" stop-color="#E2DAF9"/>
<stop offset="0.62" stop-color="#EEE8FA"/>
<stop offset="0.94" stop-color="#F3EDFB"/>
</linearGradient>
<linearGradient id="paint5_linear_140_8198" x1="150.527" y1="89.7293" x2="150.549" y2="93.0319" gradientUnits="userSpaceOnUse">
<stop stop-color="#B1D4F7"/>
<stop offset="1" stop-color="#637EC9"/>
</linearGradient>
<linearGradient id="paint6_linear_140_8198" x1="149.148" y1="71.3992" x2="149.674" y2="142.139" gradientUnits="userSpaceOnUse">
<stop offset="0.08" stop-color="#FFC2A9"/>
<stop offset="0.52" stop-color="#FF9595"/>
</linearGradient>
<linearGradient id="paint7_linear_140_8198" x1="165.102" y1="105.428" x2="135.822" y2="105.428" gradientUnits="userSpaceOnUse">
<stop stop-color="#FF817F"/>
<stop offset="1" stop-color="#CF6074"/>
</linearGradient>
<linearGradient id="paint8_linear_140_8198" x1="150.513" y1="255.818" x2="150.008" y2="155.626" gradientUnits="userSpaceOnUse">
<stop stop-color="#1F77D1"/>
<stop offset="1" stop-color="#0686C9"/>
</linearGradient>
<linearGradient id="paint9_linear_140_8198" x1="150.513" y1="255.818" x2="150.008" y2="155.626" gradientUnits="userSpaceOnUse">
<stop stop-color="#1F77D1"/>
<stop offset="1" stop-color="#0686C9"/>
</linearGradient>
<linearGradient id="paint10_linear_140_8198" x1="150.574" y1="227.541" x2="150.967" y2="96.8942" gradientUnits="userSpaceOnUse">
<stop stop-color="#755CBB"/>
<stop offset="1" stop-color="#CCEDFF"/>
</linearGradient>
<linearGradient id="paint11_linear_140_8198" x1="119.463" y1="157.267" x2="58.0549" y2="164.532" gradientUnits="userSpaceOnUse">
<stop stop-color="#D5CDF8"/>
<stop offset="0.25" stop-color="#E2DAF9"/>
<stop offset="0.62" stop-color="#EEE8FA"/>
<stop offset="0.94" stop-color="#F3EDFB"/>
</linearGradient>
<linearGradient id="paint12_linear_140_8198" x1="119.388" y1="162.144" x2="58.5332" y2="169.347" gradientUnits="userSpaceOnUse">
<stop stop-color="#9D68C2"/>
<stop offset="1" stop-color="#CCEDFF"/>
</linearGradient>
<linearGradient id="paint13_linear_140_8198" x1="87.4532" y1="201.886" x2="79.7896" y2="164.122" gradientUnits="userSpaceOnUse">
<stop stop-color="#B1D4F7"/>
<stop offset="1" stop-color="#637EC9"/>
</linearGradient>
<linearGradient id="paint14_linear_140_8198" x1="54.3185" y1="147.437" x2="92.3982" y2="140.76" gradientUnits="userSpaceOnUse">
<stop stop-color="#D5CDF8"/>
<stop offset="1" stop-color="#F3EDFB"/>
</linearGradient>
<radialGradient id="paint15_radial_140_8198" cx="0" cy="0" r="1" gradientUnits="userSpaceOnUse" gradientTransform="translate(222.597 171.341) rotate(168.09) scale(22.6251 22.6251)">
<stop stop-color="#7DFFCF"/>
<stop offset="1" stop-color="#47C7F4"/>
</radialGradient>
<linearGradient id="paint16_linear_140_8198" x1="239.446" y1="203.595" x2="232.528" y2="170.418" gradientUnits="userSpaceOnUse">
<stop stop-color="#755CBB"/>
<stop offset="1" stop-color="#CCEDFF"/>
</linearGradient>
<linearGradient id="paint17_linear_140_8198" x1="239.955" y1="204.53" x2="236.768" y2="189.26" gradientUnits="userSpaceOnUse">
<stop stop-color="#755CBB"/>
<stop offset="1" stop-color="#CCEDFF"/>
</linearGradient>
<radialGradient id="paint18_radial_140_8198" cx="0" cy="0" r="1" gradientUnits="userSpaceOnUse" gradientTransform="translate(241.559 159.599) rotate(168.09) scale(68.0748 68.0748)">
<stop stop-color="#7DFFCF"/>
<stop offset="1" stop-color="#47C7F4"/>
</radialGradient>
<linearGradient id="paint19_linear_140_8198" x1="238.259" y1="221.781" x2="279.856" y2="154.954" gradientUnits="userSpaceOnUse">
<stop stop-color="#755CBB"/>
<stop offset="1" stop-color="#CCEDFF"/>
</linearGradient>
<linearGradient id="paint20_linear_140_8198" x1="247.008" y1="175.881" x2="269.508" y2="190.889" gradientUnits="userSpaceOnUse">
<stop stop-color="#755CBB"/>
<stop offset="1" stop-color="#CCEDFF"/>
</linearGradient>
<linearGradient id="paint21_linear_140_8198" x1="296.882" y1="169.059" x2="286.873" y2="171.17" gradientUnits="userSpaceOnUse">
<stop offset="0.02" stop-color="#FF9E8B"/>
<stop offset="1" stop-color="#FF7C7C"/>
</linearGradient>
<linearGradient id="paint22_linear_140_8198" x1="291.916" y1="181.785" x2="280.638" y2="184.163" gradientUnits="userSpaceOnUse">
<stop stop-color="#755CBB"/>
<stop offset="1" stop-color="#CCEDFF"/>
</linearGradient>
<linearGradient id="paint23_linear_140_8198" x1="249.421" y1="189.586" x2="241.7" y2="191.215" gradientUnits="userSpaceOnUse">
<stop stop-color="#755CBB"/>
<stop offset="1" stop-color="#CCEDFF"/>
</linearGradient>
<linearGradient id="paint24_linear_140_8198" x1="274.77" y1="185.758" x2="255.549" y2="189.812" gradientUnits="userSpaceOnUse">
<stop stop-color="#755CBB"/>
<stop offset="1" stop-color="#CCEDFF"/>
</linearGradient>
<linearGradient id="paint25_linear_140_8198" x1="263.687" y1="164.254" x2="253.385" y2="166.426" gradientUnits="userSpaceOnUse">
<stop stop-color="#755CBB"/>
<stop offset="1" stop-color="#CCEDFF"/>
</linearGradient>
<linearGradient id="paint26_linear_140_8198" x1="149.125" y1="94.994" x2="150.505" y2="82.2767" gradientUnits="userSpaceOnUse">
<stop stop-color="#FF817F"/>
<stop offset="1" stop-color="#CF6074"/>
</linearGradient>
<radialGradient id="paint27_radial_140_8198" cx="0" cy="0" r="1" gradientUnits="userSpaceOnUse" gradientTransform="translate(78.3995 171.341) rotate(11.91) scale(22.6251 22.6251)">
<stop stop-color="#7DFFCF"/>
<stop offset="1" stop-color="#47C7F4"/>
</radialGradient>
<linearGradient id="paint28_linear_140_8198" x1="61.5497" y1="203.595" x2="68.4679" y2="170.418" gradientUnits="userSpaceOnUse">
<stop stop-color="#755CBB"/>
<stop offset="1" stop-color="#CCEDFF"/>
</linearGradient>
<linearGradient id="paint29_linear_140_8198" x1="61.0399" y1="204.53" x2="64.2266" y2="189.26" gradientUnits="userSpaceOnUse">
<stop stop-color="#755CBB"/>
<stop offset="1" stop-color="#CCEDFF"/>
</linearGradient>
<radialGradient id="paint30_radial_140_8198" cx="0" cy="0" r="1" gradientUnits="userSpaceOnUse" gradientTransform="translate(59.4356 159.599) rotate(11.91) scale(68.0748 68.0748)">
<stop stop-color="#7DFFCF"/>
<stop offset="1" stop-color="#47C7F4"/>
</radialGradient>
<linearGradient id="paint31_linear_140_8198" x1="62.7379" y1="221.781" x2="21.1408" y2="154.954" gradientUnits="userSpaceOnUse">
<stop stop-color="#755CBB"/>
<stop offset="1" stop-color="#CCEDFF"/>
</linearGradient>
<linearGradient id="paint32_linear_140_8198" x1="53.9846" y1="175.881" x2="31.4851" y2="190.889" gradientUnits="userSpaceOnUse">
<stop stop-color="#755CBB"/>
<stop offset="1" stop-color="#CCEDFF"/>
</linearGradient>
<linearGradient id="paint33_linear_140_8198" x1="4.10583" y1="169.058" x2="14.1203" y2="171.17" gradientUnits="userSpaceOnUse">
<stop offset="0.02" stop-color="#FF9E8B"/>
<stop offset="1" stop-color="#FF7C7C"/>
</linearGradient>
<linearGradient id="paint34_linear_140_8198" x1="9.07635" y1="181.785" x2="20.3541" y2="184.163" gradientUnits="userSpaceOnUse">
<stop stop-color="#755CBB"/>
<stop offset="1" stop-color="#CCEDFF"/>
</linearGradient>
<linearGradient id="paint35_linear_140_8198" x1="51.5695" y1="189.586" x2="59.2905" y2="191.215" gradientUnits="userSpaceOnUse">
<stop stop-color="#755CBB"/>
<stop offset="1" stop-color="#CCEDFF"/>
</linearGradient>
<linearGradient id="paint36_linear_140_8198" x1="26.2232" y1="185.758" x2="45.4442" y2="189.812" gradientUnits="userSpaceOnUse">
<stop stop-color="#755CBB"/>
<stop offset="1" stop-color="#CCEDFF"/>
</linearGradient>
<linearGradient id="paint37_linear_140_8198" x1="37.3099" y1="164.254" x2="47.6117" y2="166.426" gradientUnits="userSpaceOnUse">
<stop stop-color="#755CBB"/>
<stop offset="1" stop-color="#CCEDFF"/>
</linearGradient>
<linearGradient id="paint38_linear_140_8198" x1="181.721" y1="186.07" x2="158.662" y2="73.0408" gradientUnits="userSpaceOnUse">
<stop stop-color="#D5CDF8"/>
<stop offset="1" stop-color="#F3EDFB"/>
</linearGradient>
<linearGradient id="paint39_linear_140_8198" x1="171.372" y1="247.468" x2="187.935" y2="165.834" gradientUnits="userSpaceOnUse">
<stop stop-color="#9D68C2"/>
<stop offset="1" stop-color="#CCEDFF"/>
</linearGradient>
<linearGradient id="paint40_linear_140_8198" x1="152.706" y1="194.637" x2="193.313" y2="252.073" gradientUnits="userSpaceOnUse">
<stop stop-color="#9D68C2"/>
<stop offset="0.84" stop-color="#CCEDFF"/>
</linearGradient>
<linearGradient id="paint41_linear_140_8198" x1="182.129" y1="248.615" x2="176.527" y2="220.981" gradientUnits="userSpaceOnUse">
<stop stop-color="#9D68C2"/>
<stop offset="0.84" stop-color="#CCEDFF"/>
</linearGradient>
<linearGradient id="paint42_linear_140_8198" x1="174.254" y1="187.722" x2="179.579" y2="161.495" gradientUnits="userSpaceOnUse">
<stop stop-color="#B1D4F7"/>
<stop offset="1" stop-color="#637EC9"/>
</linearGradient>
<linearGradient id="paint43_linear_140_8198" x1="176.662" y1="132.359" x2="150.812" y2="132.359" gradientUnits="userSpaceOnUse">
<stop stop-color="white"/>
<stop offset="1" stop-color="#F3EDFB"/>
</linearGradient>
<linearGradient id="paint44_linear_140_8198" x1="179.048" y1="214.708" x2="175.474" y2="226.888" gradientUnits="userSpaceOnUse">
<stop stop-color="#B1D4F7"/>
<stop offset="1" stop-color="#637EC9"/>
</linearGradient>
<linearGradient id="paint45_linear_140_8198" x1="107.326" y1="243.423" x2="130.266" y2="130.37" gradientUnits="userSpaceOnUse">
<stop stop-color="#D5CDF8"/>
<stop offset="1" stop-color="#F3EDFB"/>
</linearGradient>
<linearGradient id="paint46_linear_140_8198" x1="116.353" y1="226.156" x2="128.688" y2="165.346" gradientUnits="userSpaceOnUse">
<stop stop-color="#9D68C2"/>
<stop offset="1" stop-color="#CCEDFF"/>
</linearGradient>
<linearGradient id="paint47_linear_140_8198" x1="118.535" y1="248.615" x2="124.143" y2="220.981" gradientUnits="userSpaceOnUse">
<stop stop-color="#9D68C2"/>
<stop offset="0.84" stop-color="#CCEDFF"/>
</linearGradient>
<linearGradient id="paint48_linear_140_8198" x1="121.136" y1="183.012" x2="124.826" y2="164.831" gradientUnits="userSpaceOnUse">
<stop stop-color="#B1D4F7"/>
<stop offset="1" stop-color="#637EC9"/>
</linearGradient>
<linearGradient id="paint49_linear_140_8198" x1="124.008" y1="-0.000310101" x2="149.858" y2="-0.000310101" gradientUnits="userSpaceOnUse">
<stop stop-color="white"/>
<stop offset="1" stop-color="#F3EDFB"/>
</linearGradient>
<linearGradient id="paint50_linear_140_8198" x1="121.62" y1="214.708" x2="125.189" y2="226.888" gradientUnits="userSpaceOnUse">
<stop stop-color="#B1D4F7"/>
<stop offset="1" stop-color="#637EC9"/>
</linearGradient>
<linearGradient id="paint51_linear_140_8198" x1="182.415" y1="60.2275" x2="174.596" y2="52.7135" gradientUnits="userSpaceOnUse">
<stop offset="0.02" stop-color="#FFAC8B"/>
<stop offset="1" stop-color="#FF9595"/>
</linearGradient>
<linearGradient id="paint52_linear_140_8198" x1="181.879" y1="57.3902" x2="174.941" y2="57.3902" gradientUnits="userSpaceOnUse">
<stop stop-color="#FF817F"/>
<stop offset="1" stop-color="#CF6074"/>
</linearGradient>
<linearGradient id="paint53_linear_140_8198" x1="178.539" y1="58.637" x2="178.605" y2="50.386" gradientUnits="userSpaceOnUse">
<stop stop-color="#CF6074"/>
<stop offset="1" stop-color="#FF817F"/>
</linearGradient>
<linearGradient id="paint54_linear_140_8198" x1="175.437" y1="52.6803" x2="179.526" y2="48.9732" gradientUnits="userSpaceOnUse">
<stop stop-color="#FFA795"/>
<stop offset="0.98" stop-color="#FFC2A9"/>
</linearGradient>
<linearGradient id="paint55_linear_140_8198" x1="118.578" y1="60.2275" x2="126.397" y2="52.7135" gradientUnits="userSpaceOnUse">
<stop offset="0.02" stop-color="#FFAC8B"/>
<stop offset="1" stop-color="#FF9595"/>
</linearGradient>
<linearGradient id="paint56_linear_140_8198" x1="119.111" y1="57.3902" x2="126.054" y2="57.3902" gradientUnits="userSpaceOnUse">
<stop stop-color="#FF817F"/>
<stop offset="1" stop-color="#CF6074"/>
</linearGradient>
<linearGradient id="paint57_linear_140_8198" x1="125.548" y1="52.6803" x2="121.464" y2="48.9732" gradientUnits="userSpaceOnUse">
<stop stop-color="#FFA795"/>
<stop offset="0.98" stop-color="#FFC2A9"/>
</linearGradient>
<linearGradient id="paint58_linear_140_8198" x1="150.499" y1="86.3606" x2="150.499" y2="24.4976" gradientUnits="userSpaceOnUse">
<stop offset="0.02" stop-color="#FFC2A9"/>
<stop offset="1" stop-color="#FF9595"/>
</linearGradient>
<linearGradient id="paint59_linear_140_8198" x1="152.339" y1="71.0888" x2="152.754" y2="19.8041" gradientUnits="userSpaceOnUse">
<stop stop-color="#CF6074"/>
<stop offset="1" stop-color="#FF817F"/>
</linearGradient>
<linearGradient id="paint60_linear_140_8198" x1="141.538" y1="31.862" x2="143.156" y2="18.6516" gradientUnits="userSpaceOnUse">
<stop stop-color="#5A1E8A"/>
<stop offset="1" stop-color="#5241B8"/>
</linearGradient>
<linearGradient id="paint61_linear_140_8198" x1="139.075" y1="59.7297" x2="138.432" y2="42.3411" gradientUnits="userSpaceOnUse">
<stop offset="0.02" stop-color="#FFA58B"/>
<stop offset="1" stop-color="#FF9595"/>
</linearGradient>
<linearGradient id="paint62_linear_140_8198" x1="145.021" y1="50.8522" x2="132.043" y2="50.8522" gradientUnits="userSpaceOnUse">
<stop stop-color="#CF6074"/>
<stop offset="1" stop-color="#FF817F"/>
</linearGradient>
<linearGradient id="paint63_linear_140_8198" x1="139.672" y1="58.2018" x2="138.852" y2="47.9504" gradientUnits="userSpaceOnUse">
<stop stop-color="#8642A0"/>
<stop offset="1" stop-color="#6456C0"/>
</linearGradient>
<linearGradient id="paint64_linear_140_8198" x1="136.314" y1="53.6339" x2="142.305" y2="53.6339" gradientUnits="userSpaceOnUse">
<stop stop-color="#20206C"/>
<stop offset="1" stop-color="#362283"/>
</linearGradient>
<linearGradient id="paint65_linear_140_8198" x1="161.917" y1="59.7297" x2="162.56" y2="42.3411" gradientUnits="userSpaceOnUse">
<stop offset="0.02" stop-color="#FFA58B"/>
<stop offset="1" stop-color="#FF9595"/>
</linearGradient>
<linearGradient id="paint66_linear_140_8198" x1="155.972" y1="50.8522" x2="168.95" y2="50.8522" gradientUnits="userSpaceOnUse">
<stop stop-color="#CF6074"/>
<stop offset="1" stop-color="#FF817F"/>
</linearGradient>
<linearGradient id="paint67_linear_140_8198" x1="161.307" y1="58.2518" x2="162.127" y2="48.0004" gradientUnits="userSpaceOnUse">
<stop stop-color="#8642A0"/>
<stop offset="1" stop-color="#6456C0"/>
</linearGradient>
<linearGradient id="paint68_linear_140_8198" x1="164.682" y1="-0.000278914" x2="158.691" y2="-0.000278914" gradientUnits="userSpaceOnUse">
<stop stop-color="#20206C"/>
<stop offset="1" stop-color="#362283"/>
</linearGradient>
<linearGradient id="paint69_linear_140_8198" x1="146.504" y1="63.7579" x2="154.522" y2="63.7579" gradientUnits="userSpaceOnUse">
<stop stop-color="#E1616A"/>
<stop offset="1" stop-color="#FF8883"/>
</linearGradient>
<linearGradient id="paint70_linear_140_8198" x1="135.096" y1="60.4103" x2="135.019" y2="66.8659" gradientUnits="userSpaceOnUse">
<stop offset="0.02" stop-color="#FFA58B"/>
<stop offset="1" stop-color="#FF9595"/>
</linearGradient>
<linearGradient id="paint71_linear_140_8198" x1="165.981" y1="60.7927" x2="165.904" y2="67.2483" gradientUnits="userSpaceOnUse">
<stop offset="0.02" stop-color="#FFA58B"/>
<stop offset="1" stop-color="#FF9595"/>
</linearGradient>
<linearGradient id="paint72_linear_140_8198" x1="159.271" y1="69.8998" x2="159.571" y2="68.827" gradientUnits="userSpaceOnUse">
<stop offset="0.02" stop-color="#FFA58B"/>
<stop offset="1" stop-color="#FF9595"/>
</linearGradient>
<linearGradient id="paint73_linear_140_8198" x1="141.028" y1="69.4596" x2="141.028" y2="68.113" gradientUnits="userSpaceOnUse">
<stop offset="0.02" stop-color="#FFA58B"/>
<stop offset="1" stop-color="#FF9595"/>
</linearGradient>
<linearGradient id="paint74_linear_140_8198" x1="150.207" y1="71.4877" x2="150.207" y2="68.9442" gradientUnits="userSpaceOnUse">
<stop stop-color="#E1616A"/>
<stop offset="1" stop-color="#FF8883"/>
</linearGradient>
<linearGradient id="paint75_linear_140_8198" x1="150.135" y1="71.1663" x2="150.008" y2="75.35" gradientUnits="userSpaceOnUse">
<stop stop-color="#E1616A"/>
<stop offset="1" stop-color="#FF8883"/>
</linearGradient>
<linearGradient id="paint76_linear_140_8198" x1="151.779" y1="54.3703" x2="157.365" y2="8.8486" gradientUnits="userSpaceOnUse">
<stop stop-color="#9942B7"/>
<stop offset="1" stop-color="#6456D8"/>
</linearGradient>
<linearGradient id="paint77_linear_140_8198" x1="150.568" y1="48.6908" x2="150.895" y2="7.9568" gradientUnits="userSpaceOnUse">
<stop stop-color="#8642C7"/>
<stop offset="1" stop-color="#8A61EF"/>
</linearGradient>
<linearGradient id="paint78_linear_140_8198" x1="160.81" y1="53.5116" x2="170.49" y2="36.7326" gradientUnits="userSpaceOnUse">
<stop stop-color="#CCEDFF"/>
<stop offset="1" stop-color="#9D68C2"/>
</linearGradient>
<linearGradient id="paint79_linear_140_8198" x1="117.312" y1="32.3775" x2="135.566" y2="32.3775" gradientUnits="userSpaceOnUse">
<stop stop-color="#CCEDFF"/>
<stop offset="1" stop-color="#9D68C2"/>
</linearGradient>
<linearGradient id="paint80_linear_140_8198" x1="118.19" y1="127.466" x2="117.437" y2="144.245" gradientUnits="userSpaceOnUse">
<stop stop-color="#C8BDF6"/>
<stop offset="1" stop-color="#F3EDFB"/>
</linearGradient>
<linearGradient id="paint81_linear_140_8198" x1="118.107" y1="129.073" x2="117.597" y2="140.46" gradientUnits="userSpaceOnUse">
<stop stop-color="#9D68C2"/>
<stop offset="1" stop-color="#CCEDFF"/>
</linearGradient>
<linearGradient id="paint82_linear_140_8198" x1="128.191" y1="140.805" x2="109.345" y2="140.805" gradientUnits="userSpaceOnUse">
<stop stop-color="#9D68C2"/>
<stop offset="1" stop-color="#CCEDFF"/>
</linearGradient>
<linearGradient id="paint83_linear_140_8198" x1="121.063" y1="148.237" x2="116.99" y2="135.88" gradientUnits="userSpaceOnUse">
<stop stop-color="#9D68C2"/>
<stop offset="1" stop-color="white"/>
</linearGradient>
<linearGradient id="paint84_linear_140_8198" x1="119.426" y1="143.813" x2="117.514" y2="137.025" gradientUnits="userSpaceOnUse">
<stop stop-color="#9D68C2"/>
<stop offset="1" stop-color="#CCEDFF"/>
</linearGradient>
<linearGradient id="paint85_linear_140_8198" x1="189.168" y1="132.176" x2="167.297" y2="132.176" gradientUnits="userSpaceOnUse">
<stop stop-color="#9D68C2"/>
<stop offset="1" stop-color="#CCEDFF"/>
</linearGradient>
</defs>
</svg>
