<svg width="24" height="24" viewBox="0 0 24 24" fill="none" xmlns="http://www.w3.org/2000/svg">
<path d="M14.5791 2.32594C14.4529 2.26448 14.3121 2.23963 14.1726 2.25422C14.033 2.2688 13.9004 2.32223 13.7897 2.40844L7.24219 7.5H3C2.60218 7.5 2.22064 7.65804 1.93934 7.93934C1.65804 8.22065 1.5 8.60218 1.5 9V15C1.5 15.3978 1.65804 15.7794 1.93934 16.0607C2.22064 16.342 2.60218 16.5 3 16.5H7.24219L13.7897 21.5916C13.9005 21.6777 14.0332 21.731 14.1728 21.7455C14.3124 21.7599 14.4533 21.7349 14.5793 21.6733C14.7054 21.6116 14.8117 21.5159 14.8861 21.3969C14.9604 21.2778 14.9999 21.1403 15 21V3C15 2.8595 14.9606 2.72181 14.8861 2.60263C14.8117 2.48346 14.7053 2.38759 14.5791 2.32594ZM13.5 19.4663L7.96031 15.1584C7.82897 15.0555 7.66686 14.9997 7.5 15H3V9H7.5C7.66686 9.00027 7.82897 8.94447 7.96031 8.84156L13.5 4.53375V19.4663ZM18.75 9.75V14.25C18.75 14.4489 18.671 14.6397 18.5303 14.7803C18.3897 14.921 18.1989 15 18 15C17.8011 15 17.6103 14.921 17.4697 14.7803C17.329 14.6397 17.25 14.4489 17.25 14.25V9.75C17.25 9.55109 17.329 9.36032 17.4697 9.21967C17.6103 9.07902 17.8011 9 18 9C18.1989 9 18.3897 9.07902 18.5303 9.21967C18.671 9.36032 18.75 9.55109 18.75 9.75ZM21.75 8.25V15.75C21.75 15.9489 21.671 16.1397 21.5303 16.2803C21.3897 16.421 21.1989 16.5 21 16.5C20.8011 16.5 20.6103 16.421 20.4697 16.2803C20.329 16.1397 20.25 15.9489 20.25 15.75V8.25C20.25 8.05109 20.329 7.86032 20.4697 7.71967C20.6103 7.57902 20.8011 7.5 21 7.5C21.1989 7.5 21.3897 7.57902 21.5303 7.71967C21.671 7.86032 21.75 8.05109 21.75 8.25Z" fill="black"/>
</svg>
