<svg width="24" height="24" viewBox="0 0 24 24" fill="none" xmlns="http://www.w3.org/2000/svg">
<g clip-path="url(#clip0_140_12343)">
<path d="M0 12.0001C0 13.4679 0.264047 14.874 0.746391 16.174L12 17.2175L23.2536 16.174C23.736 14.874 24 13.4679 24 12.0001C24 10.5322 23.736 9.12618 23.2536 7.8262L12 6.78271L0.746391 7.8262C0.264047 9.12618 0 10.5322 0 12.0001H0Z" fill="#FFDA44"/>
<path d="M23.2543 7.82611C21.5588 3.25655 17.1603 0 12.0007 0C6.8411 0 2.44259 3.25655 0.74707 7.82611H23.2543Z" fill="#D80027"/>
<path d="M0.74707 16.1738C2.44259 20.7434 6.8411 23.9999 12.0007 23.9999C17.1603 23.9999 21.5588 20.7434 23.2543 16.1738H0.74707Z" fill="#D80027"/>
</g>
<defs>
<clipPath id="clip0_140_12343">
<rect width="24" height="24" fill="white"/>
</clipPath>
</defs>
</svg>
